%TF.GenerationSoftware,KiCad,Pcbnew,(6.0.0)*%
%TF.CreationDate,2023-02-04T05:02:53+03:00*%
%TF.ProjectId,STM32F4_breakout,53544d33-3246-4345-9f62-7265616b6f75,rev?*%
%TF.SameCoordinates,Original*%
%TF.FileFunction,Copper,L3,Inr*%
%TF.FilePolarity,Positive*%
%FSLAX46Y46*%
G04 Gerber Fmt 4.6, Leading zero omitted, Abs format (unit mm)*
G04 Created by KiCad (PCBNEW (6.0.0)) date 2023-02-04 05:02:53*
%MOMM*%
%LPD*%
G01*
G04 APERTURE LIST*
%TA.AperFunction,ComponentPad*%
%ADD10C,0.800000*%
%TD*%
%TA.AperFunction,ComponentPad*%
%ADD11C,6.000000*%
%TD*%
%TA.AperFunction,ComponentPad*%
%ADD12R,1.700000X1.700000*%
%TD*%
%TA.AperFunction,ComponentPad*%
%ADD13O,1.700000X1.700000*%
%TD*%
%TA.AperFunction,ViaPad*%
%ADD14C,0.800000*%
%TD*%
%TA.AperFunction,ViaPad*%
%ADD15C,1.000000*%
%TD*%
G04 APERTURE END LIST*
D10*
%TO.N,GND*%
%TO.C,H3*%
X126000000Y-100250000D03*
X126659010Y-101840990D03*
X128250000Y-102500000D03*
X129840990Y-101840990D03*
D11*
X128250000Y-100250000D03*
D10*
X126659010Y-98659010D03*
X130500000Y-100250000D03*
X129840990Y-98659010D03*
X128250000Y-98000000D03*
%TD*%
D12*
%TO.N,VCC*%
%TO.C,J1*%
X127500000Y-89775000D03*
D13*
%TO.N,GND*%
X127500000Y-87235000D03*
%TD*%
%TO.N,GND*%
%TO.C,3.3V*%
X137760000Y-57000000D03*
D12*
%TO.N,+3V3*%
X140300000Y-57000000D03*
%TD*%
%TO.N,UART1_RX*%
%TO.C,UART*%
X171000000Y-79225000D03*
D13*
%TO.N,UART1_TX*%
X171000000Y-81765000D03*
%TD*%
D12*
%TO.N,I2C1_SDA*%
%TO.C,I2C*%
X148660000Y-57000000D03*
D13*
%TO.N,I2C1_SCL*%
X151200000Y-57000000D03*
%TD*%
D10*
%TO.N,GND*%
%TO.C,H1*%
X128250000Y-60000000D03*
X126000000Y-57750000D03*
X129840990Y-59340990D03*
X126659010Y-56159010D03*
X130500000Y-57750000D03*
X126659010Y-59340990D03*
X129840990Y-56159010D03*
X128250000Y-55500000D03*
D11*
X128250000Y-57750000D03*
%TD*%
D10*
%TO.N,GND*%
%TO.C,H2*%
X170750000Y-55500000D03*
X169159010Y-56159010D03*
X168500000Y-57750000D03*
X172340990Y-56159010D03*
X172340990Y-59340990D03*
X173000000Y-57750000D03*
X170750000Y-60000000D03*
D11*
X170750000Y-57750000D03*
D10*
X169159010Y-59340990D03*
%TD*%
D12*
%TO.N,SPI1_MOSI*%
%TO.C,SPI*%
X152080000Y-100750000D03*
D13*
%TO.N,SPI1_MISO*%
X149540000Y-100750000D03*
%TO.N,SPI1_SCK*%
X147000000Y-100750000D03*
%TO.N,SPI1_CS*%
X144460000Y-100750000D03*
%TD*%
D10*
%TO.N,GND*%
%TO.C,H4*%
X170750000Y-98000000D03*
X168500000Y-100250000D03*
D11*
X170750000Y-100250000D03*
D10*
X169159010Y-101840990D03*
X172340990Y-101840990D03*
X169159010Y-98659010D03*
X170750000Y-102500000D03*
X173000000Y-100250000D03*
X172340990Y-98659010D03*
%TD*%
D14*
%TO.N,GND*%
X158000000Y-86100000D03*
X144900000Y-87200000D03*
D15*
X127600000Y-81200000D03*
X137100000Y-67700000D03*
X125800000Y-83400000D03*
X127600000Y-83400000D03*
D14*
X156800000Y-85800000D03*
D15*
X134800000Y-73400000D03*
D14*
X142600000Y-79200000D03*
X148000000Y-69200000D03*
D15*
X142700000Y-69500000D03*
D14*
X151800000Y-88100000D03*
X141500000Y-79200000D03*
X160600000Y-75300000D03*
X153200000Y-89100000D03*
X137550000Y-79450000D03*
D15*
X125800000Y-79200000D03*
D14*
X140500000Y-73900000D03*
X143600000Y-73600000D03*
X158300000Y-72700000D03*
X144900000Y-86100000D03*
D15*
X125800000Y-81200000D03*
D14*
X156800000Y-84700000D03*
%TO.N,+3V3*%
X142800000Y-71900000D03*
X147000000Y-88300000D03*
X146000000Y-69200000D03*
D15*
X131600000Y-72300000D03*
D14*
X137800000Y-84200000D03*
X147000000Y-89300000D03*
X146000000Y-68100000D03*
D15*
X164480000Y-61550000D03*
D14*
X142500000Y-75500000D03*
X158300000Y-73700000D03*
D15*
X128400000Y-72300000D03*
X165990000Y-61570000D03*
X127200000Y-70500000D03*
X128400000Y-73900000D03*
D14*
X139300000Y-84200000D03*
D15*
X132800000Y-70500000D03*
D14*
X154800000Y-86900000D03*
X137800000Y-82700000D03*
X147600000Y-65600000D03*
X154800000Y-87900000D03*
X150700000Y-65600000D03*
D15*
X131600000Y-73900000D03*
D14*
%TO.N,NRST*%
X170500000Y-75600000D03*
X147200000Y-78000000D03*
%TD*%
%TA.AperFunction,Conductor*%
%TO.N,+3V3*%
G36*
X168943113Y-54528002D02*
G01*
X168989606Y-54581658D01*
X168999710Y-54651932D01*
X168970216Y-54716512D01*
X168943616Y-54739673D01*
X168684925Y-54907668D01*
X168399133Y-55139098D01*
X168139098Y-55399133D01*
X167907668Y-55684925D01*
X167905866Y-55687700D01*
X167715633Y-55980635D01*
X167707380Y-55993343D01*
X167705885Y-55996277D01*
X167705881Y-55996284D01*
X167650319Y-56105331D01*
X167540427Y-56321006D01*
X167408639Y-56664326D01*
X167313459Y-57019541D01*
X167305482Y-57069908D01*
X167274179Y-57267548D01*
X167255931Y-57382759D01*
X167236685Y-57750000D01*
X167255931Y-58117241D01*
X167256444Y-58120481D01*
X167256445Y-58120489D01*
X167269945Y-58205724D01*
X167313459Y-58480459D01*
X167408639Y-58835674D01*
X167540427Y-59178994D01*
X167541925Y-59181934D01*
X167704136Y-59500290D01*
X167707380Y-59506657D01*
X167709176Y-59509423D01*
X167709178Y-59509426D01*
X167784238Y-59625008D01*
X167907668Y-59815075D01*
X168139098Y-60100867D01*
X168399133Y-60360902D01*
X168684925Y-60592332D01*
X168993342Y-60792620D01*
X168996276Y-60794115D01*
X168996283Y-60794119D01*
X169318066Y-60958075D01*
X169321006Y-60959573D01*
X169664326Y-61091361D01*
X170019541Y-61186541D01*
X170212558Y-61217112D01*
X170379511Y-61243555D01*
X170379519Y-61243556D01*
X170382759Y-61244069D01*
X170750000Y-61263315D01*
X171117241Y-61244069D01*
X171120481Y-61243556D01*
X171120489Y-61243555D01*
X171287442Y-61217112D01*
X171480459Y-61186541D01*
X171835674Y-61091361D01*
X172178994Y-60959573D01*
X172181934Y-60958075D01*
X172503717Y-60794119D01*
X172503724Y-60794115D01*
X172506658Y-60792620D01*
X172815075Y-60592332D01*
X173100867Y-60360902D01*
X173360902Y-60100867D01*
X173592332Y-59815075D01*
X173760327Y-59556384D01*
X173814204Y-59510147D01*
X173884525Y-59500377D01*
X173948965Y-59530177D01*
X173987064Y-59590085D01*
X173992000Y-59625008D01*
X173992000Y-98374992D01*
X173971998Y-98443113D01*
X173918342Y-98489606D01*
X173848068Y-98499710D01*
X173783488Y-98470216D01*
X173760327Y-98443616D01*
X173594134Y-98187700D01*
X173592332Y-98184925D01*
X173360902Y-97899133D01*
X173100867Y-97639098D01*
X172815075Y-97407668D01*
X172506658Y-97207380D01*
X172503724Y-97205885D01*
X172503717Y-97205881D01*
X172181934Y-97041925D01*
X172178994Y-97040427D01*
X171835674Y-96908639D01*
X171480459Y-96813459D01*
X171287442Y-96782888D01*
X171120489Y-96756445D01*
X171120481Y-96756444D01*
X171117241Y-96755931D01*
X170750000Y-96736685D01*
X170382759Y-96755931D01*
X170379519Y-96756444D01*
X170379511Y-96756445D01*
X170212558Y-96782888D01*
X170019541Y-96813459D01*
X169664326Y-96908639D01*
X169321006Y-97040427D01*
X169318066Y-97041925D01*
X168996284Y-97205881D01*
X168996277Y-97205885D01*
X168993343Y-97207380D01*
X168684925Y-97407668D01*
X168399133Y-97639098D01*
X168139098Y-97899133D01*
X167907668Y-98184925D01*
X167905866Y-98187700D01*
X167740000Y-98443113D01*
X167707380Y-98493343D01*
X167705885Y-98496277D01*
X167705881Y-98496284D01*
X167541925Y-98818066D01*
X167540427Y-98821006D01*
X167408639Y-99164326D01*
X167313459Y-99519541D01*
X167290943Y-99661703D01*
X167260283Y-99855283D01*
X167255931Y-99882759D01*
X167236685Y-100250000D01*
X167255931Y-100617241D01*
X167256444Y-100620481D01*
X167256445Y-100620489D01*
X167282888Y-100787442D01*
X167313459Y-100980459D01*
X167408639Y-101335674D01*
X167540427Y-101678994D01*
X167541925Y-101681934D01*
X167692132Y-101976731D01*
X167707380Y-102006657D01*
X167709176Y-102009423D01*
X167709178Y-102009426D01*
X167770314Y-102103567D01*
X167907668Y-102315075D01*
X168139098Y-102600867D01*
X168399133Y-102860902D01*
X168684925Y-103092332D01*
X168687700Y-103094134D01*
X168943615Y-103260327D01*
X168989852Y-103314204D01*
X168999622Y-103384525D01*
X168969822Y-103448965D01*
X168909914Y-103487064D01*
X168874991Y-103492000D01*
X130125009Y-103492000D01*
X130056888Y-103471998D01*
X130010395Y-103418342D01*
X130000291Y-103348068D01*
X130029785Y-103283488D01*
X130056385Y-103260327D01*
X130312300Y-103094134D01*
X130315075Y-103092332D01*
X130600867Y-102860902D01*
X130860902Y-102600867D01*
X131092332Y-102315075D01*
X131229686Y-102103567D01*
X131290822Y-102009426D01*
X131290824Y-102009423D01*
X131292620Y-102006657D01*
X131307869Y-101976731D01*
X131458075Y-101681934D01*
X131459573Y-101678994D01*
X131591361Y-101335674D01*
X131686541Y-100980459D01*
X131717112Y-100787442D01*
X131728317Y-100716695D01*
X143097251Y-100716695D01*
X143110110Y-100939715D01*
X143111247Y-100944761D01*
X143111248Y-100944767D01*
X143118557Y-100977198D01*
X143159222Y-101157639D01*
X143243266Y-101364616D01*
X143280685Y-101425678D01*
X143357291Y-101550688D01*
X143359987Y-101555088D01*
X143506250Y-101723938D01*
X143678126Y-101866632D01*
X143871000Y-101979338D01*
X144079692Y-102059030D01*
X144084760Y-102060061D01*
X144084763Y-102060062D01*
X144192017Y-102081883D01*
X144298597Y-102103567D01*
X144303772Y-102103757D01*
X144303774Y-102103757D01*
X144516673Y-102111564D01*
X144516677Y-102111564D01*
X144521837Y-102111753D01*
X144526957Y-102111097D01*
X144526959Y-102111097D01*
X144738288Y-102084025D01*
X144738289Y-102084025D01*
X144743416Y-102083368D01*
X144748366Y-102081883D01*
X144952429Y-102020661D01*
X144952434Y-102020659D01*
X144957384Y-102019174D01*
X145157994Y-101920896D01*
X145339860Y-101791173D01*
X145498096Y-101633489D01*
X145557594Y-101550689D01*
X145628453Y-101452077D01*
X145629776Y-101453028D01*
X145676645Y-101409857D01*
X145746580Y-101397625D01*
X145812026Y-101425144D01*
X145839875Y-101456994D01*
X145899987Y-101555088D01*
X146046250Y-101723938D01*
X146218126Y-101866632D01*
X146411000Y-101979338D01*
X146619692Y-102059030D01*
X146624760Y-102060061D01*
X146624763Y-102060062D01*
X146732017Y-102081883D01*
X146838597Y-102103567D01*
X146843772Y-102103757D01*
X146843774Y-102103757D01*
X147056673Y-102111564D01*
X147056677Y-102111564D01*
X147061837Y-102111753D01*
X147066957Y-102111097D01*
X147066959Y-102111097D01*
X147278288Y-102084025D01*
X147278289Y-102084025D01*
X147283416Y-102083368D01*
X147288366Y-102081883D01*
X147492429Y-102020661D01*
X147492434Y-102020659D01*
X147497384Y-102019174D01*
X147697994Y-101920896D01*
X147879860Y-101791173D01*
X148038096Y-101633489D01*
X148097594Y-101550689D01*
X148168453Y-101452077D01*
X148169776Y-101453028D01*
X148216645Y-101409857D01*
X148286580Y-101397625D01*
X148352026Y-101425144D01*
X148379875Y-101456994D01*
X148439987Y-101555088D01*
X148586250Y-101723938D01*
X148758126Y-101866632D01*
X148951000Y-101979338D01*
X149159692Y-102059030D01*
X149164760Y-102060061D01*
X149164763Y-102060062D01*
X149272017Y-102081883D01*
X149378597Y-102103567D01*
X149383772Y-102103757D01*
X149383774Y-102103757D01*
X149596673Y-102111564D01*
X149596677Y-102111564D01*
X149601837Y-102111753D01*
X149606957Y-102111097D01*
X149606959Y-102111097D01*
X149818288Y-102084025D01*
X149818289Y-102084025D01*
X149823416Y-102083368D01*
X149828366Y-102081883D01*
X150032429Y-102020661D01*
X150032434Y-102020659D01*
X150037384Y-102019174D01*
X150237994Y-101920896D01*
X150419860Y-101791173D01*
X150528091Y-101683319D01*
X150590462Y-101649404D01*
X150661268Y-101654592D01*
X150718030Y-101697238D01*
X150735012Y-101728341D01*
X150779385Y-101846705D01*
X150866739Y-101963261D01*
X150983295Y-102050615D01*
X151119684Y-102101745D01*
X151181866Y-102108500D01*
X152978134Y-102108500D01*
X153040316Y-102101745D01*
X153176705Y-102050615D01*
X153293261Y-101963261D01*
X153380615Y-101846705D01*
X153431745Y-101710316D01*
X153438500Y-101648134D01*
X153438500Y-99851866D01*
X153431745Y-99789684D01*
X153380615Y-99653295D01*
X153293261Y-99536739D01*
X153176705Y-99449385D01*
X153040316Y-99398255D01*
X152978134Y-99391500D01*
X151181866Y-99391500D01*
X151119684Y-99398255D01*
X150983295Y-99449385D01*
X150866739Y-99536739D01*
X150779385Y-99653295D01*
X150776233Y-99661703D01*
X150734919Y-99771907D01*
X150692277Y-99828671D01*
X150625716Y-99853371D01*
X150556367Y-99838163D01*
X150523743Y-99812476D01*
X150473151Y-99756875D01*
X150473142Y-99756866D01*
X150469670Y-99753051D01*
X150465619Y-99749852D01*
X150465615Y-99749848D01*
X150298414Y-99617800D01*
X150298410Y-99617798D01*
X150294359Y-99614598D01*
X150098789Y-99506638D01*
X150093920Y-99504914D01*
X150093916Y-99504912D01*
X149893087Y-99433795D01*
X149893083Y-99433794D01*
X149888212Y-99432069D01*
X149883119Y-99431162D01*
X149883116Y-99431161D01*
X149673373Y-99393800D01*
X149673367Y-99393799D01*
X149668284Y-99392894D01*
X149594452Y-99391992D01*
X149450081Y-99390228D01*
X149450079Y-99390228D01*
X149444911Y-99390165D01*
X149224091Y-99423955D01*
X149011756Y-99493357D01*
X148813607Y-99596507D01*
X148809474Y-99599610D01*
X148809471Y-99599612D01*
X148639100Y-99727530D01*
X148634965Y-99730635D01*
X148595525Y-99771907D01*
X148541280Y-99828671D01*
X148480629Y-99892138D01*
X148373201Y-100049621D01*
X148318293Y-100094621D01*
X148247768Y-100102792D01*
X148184021Y-100071538D01*
X148163324Y-100047054D01*
X148082822Y-99922617D01*
X148082820Y-99922614D01*
X148080014Y-99918277D01*
X147929670Y-99753051D01*
X147925619Y-99749852D01*
X147925615Y-99749848D01*
X147758414Y-99617800D01*
X147758410Y-99617798D01*
X147754359Y-99614598D01*
X147558789Y-99506638D01*
X147553920Y-99504914D01*
X147553916Y-99504912D01*
X147353087Y-99433795D01*
X147353083Y-99433794D01*
X147348212Y-99432069D01*
X147343119Y-99431162D01*
X147343116Y-99431161D01*
X147133373Y-99393800D01*
X147133367Y-99393799D01*
X147128284Y-99392894D01*
X147054452Y-99391992D01*
X146910081Y-99390228D01*
X146910079Y-99390228D01*
X146904911Y-99390165D01*
X146684091Y-99423955D01*
X146471756Y-99493357D01*
X146273607Y-99596507D01*
X146269474Y-99599610D01*
X146269471Y-99599612D01*
X146099100Y-99727530D01*
X146094965Y-99730635D01*
X146055525Y-99771907D01*
X146001280Y-99828671D01*
X145940629Y-99892138D01*
X145833201Y-100049621D01*
X145778293Y-100094621D01*
X145707768Y-100102792D01*
X145644021Y-100071538D01*
X145623324Y-100047054D01*
X145542822Y-99922617D01*
X145542820Y-99922614D01*
X145540014Y-99918277D01*
X145389670Y-99753051D01*
X145385619Y-99749852D01*
X145385615Y-99749848D01*
X145218414Y-99617800D01*
X145218410Y-99617798D01*
X145214359Y-99614598D01*
X145018789Y-99506638D01*
X145013920Y-99504914D01*
X145013916Y-99504912D01*
X144813087Y-99433795D01*
X144813083Y-99433794D01*
X144808212Y-99432069D01*
X144803119Y-99431162D01*
X144803116Y-99431161D01*
X144593373Y-99393800D01*
X144593367Y-99393799D01*
X144588284Y-99392894D01*
X144514452Y-99391992D01*
X144370081Y-99390228D01*
X144370079Y-99390228D01*
X144364911Y-99390165D01*
X144144091Y-99423955D01*
X143931756Y-99493357D01*
X143733607Y-99596507D01*
X143729474Y-99599610D01*
X143729471Y-99599612D01*
X143559100Y-99727530D01*
X143554965Y-99730635D01*
X143515525Y-99771907D01*
X143461280Y-99828671D01*
X143400629Y-99892138D01*
X143274743Y-100076680D01*
X143227715Y-100177993D01*
X143192759Y-100253301D01*
X143180688Y-100279305D01*
X143120989Y-100494570D01*
X143097251Y-100716695D01*
X131728317Y-100716695D01*
X131743555Y-100620489D01*
X131743556Y-100620481D01*
X131744069Y-100617241D01*
X131763315Y-100250000D01*
X131744069Y-99882759D01*
X131739718Y-99855283D01*
X131709057Y-99661703D01*
X131686541Y-99519541D01*
X131591361Y-99164326D01*
X131459573Y-98821006D01*
X131458075Y-98818066D01*
X131294119Y-98496284D01*
X131294115Y-98496277D01*
X131292620Y-98493343D01*
X131260001Y-98443113D01*
X131094134Y-98187700D01*
X131092332Y-98184925D01*
X130860902Y-97899133D01*
X130600867Y-97639098D01*
X130315075Y-97407668D01*
X130006658Y-97207380D01*
X130003724Y-97205885D01*
X130003717Y-97205881D01*
X129681934Y-97041925D01*
X129678994Y-97040427D01*
X129335674Y-96908639D01*
X128980459Y-96813459D01*
X128787442Y-96782888D01*
X128620489Y-96756445D01*
X128620481Y-96756444D01*
X128617241Y-96755931D01*
X128250000Y-96736685D01*
X127882759Y-96755931D01*
X127879519Y-96756444D01*
X127879511Y-96756445D01*
X127712558Y-96782888D01*
X127519541Y-96813459D01*
X127164326Y-96908639D01*
X126821006Y-97040427D01*
X126818066Y-97041925D01*
X126496284Y-97205881D01*
X126496277Y-97205885D01*
X126493343Y-97207380D01*
X126184925Y-97407668D01*
X125899133Y-97639098D01*
X125639098Y-97899133D01*
X125407668Y-98184925D01*
X125405866Y-98187700D01*
X125239673Y-98443616D01*
X125185796Y-98489853D01*
X125115475Y-98499623D01*
X125051035Y-98469823D01*
X125012936Y-98409915D01*
X125008000Y-98374992D01*
X125008000Y-87201695D01*
X126137251Y-87201695D01*
X126137548Y-87206848D01*
X126137548Y-87206851D01*
X126143011Y-87301590D01*
X126150110Y-87424715D01*
X126151247Y-87429761D01*
X126151248Y-87429767D01*
X126171119Y-87517939D01*
X126199222Y-87642639D01*
X126283266Y-87849616D01*
X126303570Y-87882749D01*
X126371624Y-87993803D01*
X126399987Y-88040088D01*
X126546250Y-88208938D01*
X126550230Y-88212242D01*
X126554981Y-88216187D01*
X126594616Y-88275090D01*
X126596113Y-88346071D01*
X126558997Y-88406593D01*
X126518724Y-88431112D01*
X126403295Y-88474385D01*
X126286739Y-88561739D01*
X126199385Y-88678295D01*
X126148255Y-88814684D01*
X126141500Y-88876866D01*
X126141500Y-90673134D01*
X126148255Y-90735316D01*
X126199385Y-90871705D01*
X126286739Y-90988261D01*
X126403295Y-91075615D01*
X126539684Y-91126745D01*
X126601866Y-91133500D01*
X128398134Y-91133500D01*
X128460316Y-91126745D01*
X128596705Y-91075615D01*
X128713261Y-90988261D01*
X128800615Y-90871705D01*
X128851745Y-90735316D01*
X128858500Y-90673134D01*
X128858500Y-88876866D01*
X128851745Y-88814684D01*
X128800615Y-88678295D01*
X128713261Y-88561739D01*
X128596705Y-88474385D01*
X128584132Y-88469672D01*
X128478203Y-88429960D01*
X128421439Y-88387318D01*
X128396739Y-88320756D01*
X128411947Y-88251408D01*
X128433493Y-88222727D01*
X128451251Y-88205031D01*
X128538096Y-88118489D01*
X128572820Y-88070166D01*
X128665435Y-87941277D01*
X128668453Y-87937077D01*
X128684903Y-87903794D01*
X128765136Y-87741453D01*
X128765137Y-87741451D01*
X128767430Y-87736811D01*
X128815900Y-87577279D01*
X128830865Y-87528023D01*
X128830865Y-87528021D01*
X128832370Y-87523069D01*
X128861529Y-87301590D01*
X128863156Y-87235000D01*
X128860279Y-87200000D01*
X143986496Y-87200000D01*
X144006458Y-87389928D01*
X144065473Y-87571556D01*
X144160960Y-87736944D01*
X144165378Y-87741851D01*
X144165379Y-87741852D01*
X144284325Y-87873955D01*
X144288747Y-87878866D01*
X144443248Y-87991118D01*
X144449276Y-87993802D01*
X144449278Y-87993803D01*
X144562001Y-88043990D01*
X144617712Y-88068794D01*
X144711112Y-88088647D01*
X144798056Y-88107128D01*
X144798061Y-88107128D01*
X144804513Y-88108500D01*
X144995487Y-88108500D01*
X145001939Y-88107128D01*
X145001944Y-88107128D01*
X145035478Y-88100000D01*
X150886496Y-88100000D01*
X150887186Y-88106565D01*
X150901659Y-88244264D01*
X150906458Y-88289928D01*
X150965473Y-88471556D01*
X151060960Y-88636944D01*
X151065378Y-88641851D01*
X151065379Y-88641852D01*
X151105763Y-88686703D01*
X151188747Y-88778866D01*
X151343248Y-88891118D01*
X151349276Y-88893802D01*
X151349278Y-88893803D01*
X151488383Y-88955736D01*
X151517712Y-88968794D01*
X151611112Y-88988647D01*
X151698056Y-89007128D01*
X151698061Y-89007128D01*
X151704513Y-89008500D01*
X151895487Y-89008500D01*
X151901939Y-89007128D01*
X151901944Y-89007128D01*
X151988888Y-88988647D01*
X152082288Y-88968794D01*
X152088315Y-88966111D01*
X152088323Y-88966108D01*
X152111618Y-88955736D01*
X152181985Y-88946302D01*
X152246282Y-88976409D01*
X152284095Y-89036498D01*
X152288176Y-89084011D01*
X152286496Y-89100000D01*
X152306458Y-89289928D01*
X152365473Y-89471556D01*
X152460960Y-89636944D01*
X152588747Y-89778866D01*
X152743248Y-89891118D01*
X152749276Y-89893802D01*
X152749278Y-89893803D01*
X152911681Y-89966109D01*
X152917712Y-89968794D01*
X153011113Y-89988647D01*
X153098056Y-90007128D01*
X153098061Y-90007128D01*
X153104513Y-90008500D01*
X153295487Y-90008500D01*
X153301939Y-90007128D01*
X153301944Y-90007128D01*
X153388887Y-89988647D01*
X153482288Y-89968794D01*
X153488319Y-89966109D01*
X153650722Y-89893803D01*
X153650724Y-89893802D01*
X153656752Y-89891118D01*
X153811253Y-89778866D01*
X153939040Y-89636944D01*
X154034527Y-89471556D01*
X154093542Y-89289928D01*
X154113504Y-89100000D01*
X154099432Y-88966108D01*
X154094232Y-88916635D01*
X154094232Y-88916633D01*
X154093542Y-88910072D01*
X154034527Y-88728444D01*
X153939040Y-88563056D01*
X153859201Y-88474385D01*
X153815675Y-88426045D01*
X153815674Y-88426044D01*
X153811253Y-88421134D01*
X153656752Y-88308882D01*
X153650724Y-88306198D01*
X153650722Y-88306197D01*
X153488319Y-88233891D01*
X153488318Y-88233891D01*
X153482288Y-88231206D01*
X153377526Y-88208938D01*
X153301944Y-88192872D01*
X153301939Y-88192872D01*
X153295487Y-88191500D01*
X153104513Y-88191500D01*
X153098061Y-88192872D01*
X153098056Y-88192872D01*
X153022474Y-88208938D01*
X152917712Y-88231206D01*
X152911685Y-88233889D01*
X152911677Y-88233892D01*
X152888382Y-88244264D01*
X152818015Y-88253698D01*
X152753718Y-88223591D01*
X152715905Y-88163502D01*
X152711824Y-88115989D01*
X152712814Y-88106568D01*
X152712814Y-88106565D01*
X152713504Y-88100000D01*
X152693542Y-87910072D01*
X152634527Y-87728444D01*
X152539040Y-87563056D01*
X152411253Y-87421134D01*
X152256752Y-87308882D01*
X152250724Y-87306198D01*
X152250722Y-87306197D01*
X152088319Y-87233891D01*
X152088318Y-87233891D01*
X152082288Y-87231206D01*
X151988888Y-87211353D01*
X151901944Y-87192872D01*
X151901939Y-87192872D01*
X151895487Y-87191500D01*
X151704513Y-87191500D01*
X151698061Y-87192872D01*
X151698056Y-87192872D01*
X151611113Y-87211353D01*
X151517712Y-87231206D01*
X151511682Y-87233891D01*
X151511681Y-87233891D01*
X151349278Y-87306197D01*
X151349276Y-87306198D01*
X151343248Y-87308882D01*
X151188747Y-87421134D01*
X151060960Y-87563056D01*
X150965473Y-87728444D01*
X150906458Y-87910072D01*
X150886496Y-88100000D01*
X145035478Y-88100000D01*
X145088888Y-88088647D01*
X145182288Y-88068794D01*
X145237999Y-88043990D01*
X145350722Y-87993803D01*
X145350724Y-87993802D01*
X145356752Y-87991118D01*
X145511253Y-87878866D01*
X145515675Y-87873955D01*
X145634621Y-87741852D01*
X145634622Y-87741851D01*
X145639040Y-87736944D01*
X145734527Y-87571556D01*
X145793542Y-87389928D01*
X145813504Y-87200000D01*
X145793542Y-87010072D01*
X145734527Y-86828444D01*
X145667875Y-86712999D01*
X145651137Y-86644005D01*
X145667875Y-86587000D01*
X145668169Y-86586492D01*
X145734527Y-86471556D01*
X145793542Y-86289928D01*
X145798995Y-86238051D01*
X145812814Y-86106565D01*
X145813504Y-86100000D01*
X145802595Y-85996206D01*
X145794232Y-85916635D01*
X145794232Y-85916633D01*
X145793542Y-85910072D01*
X145757777Y-85800000D01*
X155886496Y-85800000D01*
X155906458Y-85989928D01*
X155965473Y-86171556D01*
X156060960Y-86336944D01*
X156188747Y-86478866D01*
X156343248Y-86591118D01*
X156349276Y-86593802D01*
X156349278Y-86593803D01*
X156511681Y-86666109D01*
X156517712Y-86668794D01*
X156611112Y-86688647D01*
X156698056Y-86707128D01*
X156698061Y-86707128D01*
X156704513Y-86708500D01*
X156895487Y-86708500D01*
X156901939Y-86707128D01*
X156901944Y-86707128D01*
X156988888Y-86688647D01*
X157082288Y-86668794D01*
X157088321Y-86666108D01*
X157088327Y-86666106D01*
X157146672Y-86640129D01*
X157217039Y-86630694D01*
X157281336Y-86660800D01*
X157291553Y-86670921D01*
X157388747Y-86778866D01*
X157543248Y-86891118D01*
X157549276Y-86893802D01*
X157549278Y-86893803D01*
X157711681Y-86966109D01*
X157717712Y-86968794D01*
X157811112Y-86988647D01*
X157898056Y-87007128D01*
X157898061Y-87007128D01*
X157904513Y-87008500D01*
X158095487Y-87008500D01*
X158101939Y-87007128D01*
X158101944Y-87007128D01*
X158188888Y-86988647D01*
X158282288Y-86968794D01*
X158288319Y-86966109D01*
X158450722Y-86893803D01*
X158450724Y-86893802D01*
X158456752Y-86891118D01*
X158611253Y-86778866D01*
X158675846Y-86707128D01*
X158734621Y-86641852D01*
X158734622Y-86641851D01*
X158739040Y-86636944D01*
X158834527Y-86471556D01*
X158893542Y-86289928D01*
X158898995Y-86238051D01*
X158912814Y-86106565D01*
X158913504Y-86100000D01*
X158902595Y-85996206D01*
X158894232Y-85916635D01*
X158894232Y-85916633D01*
X158893542Y-85910072D01*
X158834527Y-85728444D01*
X158739040Y-85563056D01*
X158611253Y-85421134D01*
X158456752Y-85308882D01*
X158450724Y-85306198D01*
X158450722Y-85306197D01*
X158288319Y-85233891D01*
X158288318Y-85233891D01*
X158282288Y-85231206D01*
X158188483Y-85211267D01*
X158101944Y-85192872D01*
X158101939Y-85192872D01*
X158095487Y-85191500D01*
X157904513Y-85191500D01*
X157898061Y-85192872D01*
X157898056Y-85192872D01*
X157786103Y-85216669D01*
X157715312Y-85211267D01*
X157658680Y-85168450D01*
X157634186Y-85101813D01*
X157640073Y-85054489D01*
X157693542Y-84889928D01*
X157713504Y-84700000D01*
X157693542Y-84510072D01*
X157634527Y-84328444D01*
X157539040Y-84163056D01*
X157485824Y-84103953D01*
X157415675Y-84026045D01*
X157415674Y-84026044D01*
X157411253Y-84021134D01*
X157256752Y-83908882D01*
X157250724Y-83906198D01*
X157250722Y-83906197D01*
X157088319Y-83833891D01*
X157088318Y-83833891D01*
X157082288Y-83831206D01*
X156988888Y-83811353D01*
X156901944Y-83792872D01*
X156901939Y-83792872D01*
X156895487Y-83791500D01*
X156704513Y-83791500D01*
X156698061Y-83792872D01*
X156698056Y-83792872D01*
X156611112Y-83811353D01*
X156517712Y-83831206D01*
X156511682Y-83833891D01*
X156511681Y-83833891D01*
X156349278Y-83906197D01*
X156349276Y-83906198D01*
X156343248Y-83908882D01*
X156188747Y-84021134D01*
X156184326Y-84026044D01*
X156184325Y-84026045D01*
X156114177Y-84103953D01*
X156060960Y-84163056D01*
X155965473Y-84328444D01*
X155906458Y-84510072D01*
X155886496Y-84700000D01*
X155906458Y-84889928D01*
X155965473Y-85071556D01*
X155968776Y-85077278D01*
X155968777Y-85077279D01*
X156032125Y-85187000D01*
X156048863Y-85255995D01*
X156032125Y-85312999D01*
X155965473Y-85428444D01*
X155906458Y-85610072D01*
X155886496Y-85800000D01*
X145757777Y-85800000D01*
X145734527Y-85728444D01*
X145639040Y-85563056D01*
X145511253Y-85421134D01*
X145356752Y-85308882D01*
X145350724Y-85306198D01*
X145350722Y-85306197D01*
X145188319Y-85233891D01*
X145188318Y-85233891D01*
X145182288Y-85231206D01*
X145088483Y-85211267D01*
X145001944Y-85192872D01*
X145001939Y-85192872D01*
X144995487Y-85191500D01*
X144804513Y-85191500D01*
X144798061Y-85192872D01*
X144798056Y-85192872D01*
X144711517Y-85211267D01*
X144617712Y-85231206D01*
X144611682Y-85233891D01*
X144611681Y-85233891D01*
X144449278Y-85306197D01*
X144449276Y-85306198D01*
X144443248Y-85308882D01*
X144288747Y-85421134D01*
X144160960Y-85563056D01*
X144065473Y-85728444D01*
X144006458Y-85910072D01*
X144005768Y-85916633D01*
X144005768Y-85916635D01*
X143997405Y-85996206D01*
X143986496Y-86100000D01*
X143987186Y-86106565D01*
X144001006Y-86238051D01*
X144006458Y-86289928D01*
X144065473Y-86471556D01*
X144131832Y-86586492D01*
X144132125Y-86587000D01*
X144148863Y-86655995D01*
X144132125Y-86712999D01*
X144065473Y-86828444D01*
X144006458Y-87010072D01*
X143986496Y-87200000D01*
X128860279Y-87200000D01*
X128844852Y-87012361D01*
X128790431Y-86795702D01*
X128701354Y-86590840D01*
X128580014Y-86403277D01*
X128429670Y-86238051D01*
X128425619Y-86234852D01*
X128425615Y-86234848D01*
X128258414Y-86102800D01*
X128258410Y-86102798D01*
X128254359Y-86099598D01*
X128058789Y-85991638D01*
X128053920Y-85989914D01*
X128053916Y-85989912D01*
X127853087Y-85918795D01*
X127853083Y-85918794D01*
X127848212Y-85917069D01*
X127843119Y-85916162D01*
X127843116Y-85916161D01*
X127633373Y-85878800D01*
X127633367Y-85878799D01*
X127628284Y-85877894D01*
X127554452Y-85876992D01*
X127410081Y-85875228D01*
X127410079Y-85875228D01*
X127404911Y-85875165D01*
X127184091Y-85908955D01*
X126971756Y-85978357D01*
X126773607Y-86081507D01*
X126769474Y-86084610D01*
X126769471Y-86084612D01*
X126646050Y-86177279D01*
X126594965Y-86215635D01*
X126591393Y-86219373D01*
X126484504Y-86331226D01*
X126440629Y-86377138D01*
X126314743Y-86561680D01*
X126299832Y-86593803D01*
X126247229Y-86707128D01*
X126220688Y-86764305D01*
X126160989Y-86979570D01*
X126137251Y-87201695D01*
X125008000Y-87201695D01*
X125008000Y-84322995D01*
X125028002Y-84254874D01*
X125081658Y-84208381D01*
X125151932Y-84198277D01*
X125211520Y-84225170D01*
X125211898Y-84224626D01*
X125214832Y-84226665D01*
X125215660Y-84227039D01*
X125216953Y-84228139D01*
X125216956Y-84228141D01*
X125221650Y-84232136D01*
X125394294Y-84328624D01*
X125582392Y-84389740D01*
X125778777Y-84413158D01*
X125784912Y-84412686D01*
X125784914Y-84412686D01*
X125969830Y-84398457D01*
X125969834Y-84398456D01*
X125975972Y-84397984D01*
X126166463Y-84344798D01*
X126171967Y-84342018D01*
X126171969Y-84342017D01*
X126337495Y-84258404D01*
X126337497Y-84258403D01*
X126342996Y-84255625D01*
X126498847Y-84133861D01*
X126605713Y-84010055D01*
X126665363Y-83971560D01*
X126736360Y-83971424D01*
X126799838Y-84014124D01*
X126871035Y-84103953D01*
X126875728Y-84107947D01*
X126875729Y-84107948D01*
X127016954Y-84228139D01*
X127021650Y-84232136D01*
X127194294Y-84328624D01*
X127382392Y-84389740D01*
X127578777Y-84413158D01*
X127584912Y-84412686D01*
X127584914Y-84412686D01*
X127769830Y-84398457D01*
X127769834Y-84398456D01*
X127775972Y-84397984D01*
X127966463Y-84344798D01*
X127971967Y-84342018D01*
X127971969Y-84342017D01*
X128137495Y-84258404D01*
X128137497Y-84258403D01*
X128142996Y-84255625D01*
X128298847Y-84133861D01*
X128402201Y-84014124D01*
X128424049Y-83988813D01*
X128424050Y-83988811D01*
X128428078Y-83984145D01*
X128525769Y-83812179D01*
X128588197Y-83624513D01*
X128612985Y-83428295D01*
X128613380Y-83400000D01*
X128594080Y-83203167D01*
X128536916Y-83013831D01*
X128444066Y-82839204D01*
X128362291Y-82738938D01*
X128322960Y-82690713D01*
X128322957Y-82690710D01*
X128319065Y-82685938D01*
X128312718Y-82680687D01*
X128171425Y-82563799D01*
X128171421Y-82563797D01*
X128166675Y-82559870D01*
X127992701Y-82465802D01*
X127928940Y-82446065D01*
X127843999Y-82419771D01*
X127784839Y-82380520D01*
X127756292Y-82315515D01*
X127767421Y-82245396D01*
X127814692Y-82192425D01*
X127847366Y-82178050D01*
X127966463Y-82144798D01*
X127971967Y-82142018D01*
X127971969Y-82142017D01*
X128137495Y-82058404D01*
X128137497Y-82058403D01*
X128142996Y-82055625D01*
X128298847Y-81933861D01*
X128402201Y-81814124D01*
X128424049Y-81788813D01*
X128424050Y-81788811D01*
X128428078Y-81784145D01*
X128457874Y-81731695D01*
X169637251Y-81731695D01*
X169637548Y-81736848D01*
X169637548Y-81736851D01*
X169643011Y-81831590D01*
X169650110Y-81954715D01*
X169651247Y-81959761D01*
X169651248Y-81959767D01*
X169659927Y-81998277D01*
X169699222Y-82172639D01*
X169760673Y-82323976D01*
X169773835Y-82356389D01*
X169783266Y-82379616D01*
X169899987Y-82570088D01*
X170046250Y-82738938D01*
X170218126Y-82881632D01*
X170411000Y-82994338D01*
X170415825Y-82996180D01*
X170415826Y-82996181D01*
X170462047Y-83013831D01*
X170619692Y-83074030D01*
X170624760Y-83075061D01*
X170624763Y-83075062D01*
X170732017Y-83096883D01*
X170838597Y-83118567D01*
X170843772Y-83118757D01*
X170843774Y-83118757D01*
X171056673Y-83126564D01*
X171056677Y-83126564D01*
X171061837Y-83126753D01*
X171066957Y-83126097D01*
X171066959Y-83126097D01*
X171278288Y-83099025D01*
X171278289Y-83099025D01*
X171283416Y-83098368D01*
X171288366Y-83096883D01*
X171492429Y-83035661D01*
X171492434Y-83035659D01*
X171497384Y-83034174D01*
X171697994Y-82935896D01*
X171879860Y-82806173D01*
X172038096Y-82648489D01*
X172078465Y-82592310D01*
X172165435Y-82471277D01*
X172168453Y-82467077D01*
X172172609Y-82458669D01*
X172265136Y-82271453D01*
X172265137Y-82271451D01*
X172267430Y-82266811D01*
X172332370Y-82053069D01*
X172361529Y-81831590D01*
X172363156Y-81765000D01*
X172344852Y-81542361D01*
X172290431Y-81325702D01*
X172201354Y-81120840D01*
X172080014Y-80933277D01*
X172076532Y-80929450D01*
X171932798Y-80771488D01*
X171901746Y-80707642D01*
X171910141Y-80637143D01*
X171955317Y-80582375D01*
X171981761Y-80568706D01*
X172088297Y-80528767D01*
X172096705Y-80525615D01*
X172213261Y-80438261D01*
X172300615Y-80321705D01*
X172351745Y-80185316D01*
X172358500Y-80123134D01*
X172358500Y-78326866D01*
X172351745Y-78264684D01*
X172300615Y-78128295D01*
X172213261Y-78011739D01*
X172096705Y-77924385D01*
X171960316Y-77873255D01*
X171898134Y-77866500D01*
X170101866Y-77866500D01*
X170039684Y-77873255D01*
X169903295Y-77924385D01*
X169786739Y-78011739D01*
X169699385Y-78128295D01*
X169648255Y-78264684D01*
X169641500Y-78326866D01*
X169641500Y-80123134D01*
X169648255Y-80185316D01*
X169699385Y-80321705D01*
X169786739Y-80438261D01*
X169903295Y-80525615D01*
X169911704Y-80528767D01*
X169911705Y-80528768D01*
X170020451Y-80569535D01*
X170077216Y-80612176D01*
X170101916Y-80678738D01*
X170086709Y-80748087D01*
X170067316Y-80774568D01*
X169940629Y-80907138D01*
X169814743Y-81091680D01*
X169720688Y-81294305D01*
X169660989Y-81509570D01*
X169637251Y-81731695D01*
X128457874Y-81731695D01*
X128525769Y-81612179D01*
X128588197Y-81424513D01*
X128612985Y-81228295D01*
X128613380Y-81200000D01*
X128594080Y-81003167D01*
X128571824Y-80929450D01*
X128538697Y-80819731D01*
X128536916Y-80813831D01*
X128462121Y-80673160D01*
X136269448Y-80673160D01*
X141484606Y-80679493D01*
X141485294Y-80634428D01*
X141487639Y-80480687D01*
X141491458Y-80230270D01*
X141512496Y-80162464D01*
X141566855Y-80116794D01*
X141595630Y-80109172D01*
X141595487Y-80108500D01*
X141782288Y-80068794D01*
X141805629Y-80058402D01*
X141950722Y-79993803D01*
X141950724Y-79993802D01*
X141956752Y-79991118D01*
X141975940Y-79977177D01*
X142042808Y-79953319D01*
X142111959Y-79969400D01*
X142124060Y-79977177D01*
X142143248Y-79991118D01*
X142149276Y-79993802D01*
X142149278Y-79993803D01*
X142294371Y-80058402D01*
X142317712Y-80068794D01*
X142406761Y-80087722D01*
X142498056Y-80107128D01*
X142498061Y-80107128D01*
X142504513Y-80108500D01*
X142695487Y-80108500D01*
X142701939Y-80107128D01*
X142701944Y-80107128D01*
X142793239Y-80087722D01*
X142882288Y-80068794D01*
X142905629Y-80058402D01*
X143050722Y-79993803D01*
X143050724Y-79993802D01*
X143056752Y-79991118D01*
X143211253Y-79878866D01*
X143339040Y-79736944D01*
X143411073Y-79612179D01*
X143431223Y-79577279D01*
X143431224Y-79577278D01*
X143434527Y-79571556D01*
X143493542Y-79389928D01*
X143510901Y-79224771D01*
X143512814Y-79206565D01*
X143513504Y-79200000D01*
X143493542Y-79010072D01*
X143434527Y-78828444D01*
X143339040Y-78663056D01*
X143251812Y-78566179D01*
X143221094Y-78502172D01*
X143219448Y-78481869D01*
X143219448Y-78099154D01*
X143239450Y-78031033D01*
X143275264Y-78000000D01*
X146286496Y-78000000D01*
X146306458Y-78189928D01*
X146365473Y-78371556D01*
X146460960Y-78536944D01*
X146465378Y-78541851D01*
X146465379Y-78541852D01*
X146548735Y-78634428D01*
X146588747Y-78678866D01*
X146743248Y-78791118D01*
X146749276Y-78793802D01*
X146749278Y-78793803D01*
X146841200Y-78834729D01*
X146917712Y-78868794D01*
X147011112Y-78888647D01*
X147098056Y-78907128D01*
X147098061Y-78907128D01*
X147104513Y-78908500D01*
X147295487Y-78908500D01*
X147301939Y-78907128D01*
X147301944Y-78907128D01*
X147388888Y-78888647D01*
X147482288Y-78868794D01*
X147558800Y-78834729D01*
X147650722Y-78793803D01*
X147650724Y-78793802D01*
X147656752Y-78791118D01*
X147811253Y-78678866D01*
X147851265Y-78634428D01*
X147934621Y-78541852D01*
X147934622Y-78541851D01*
X147939040Y-78536944D01*
X148034527Y-78371556D01*
X148093542Y-78189928D01*
X148113504Y-78000000D01*
X148093542Y-77810072D01*
X148034527Y-77628444D01*
X147939040Y-77463056D01*
X147811253Y-77321134D01*
X147656752Y-77208882D01*
X147650724Y-77206198D01*
X147650722Y-77206197D01*
X147488319Y-77133891D01*
X147488318Y-77133891D01*
X147482288Y-77131206D01*
X147388888Y-77111353D01*
X147301944Y-77092872D01*
X147301939Y-77092872D01*
X147295487Y-77091500D01*
X147104513Y-77091500D01*
X147098061Y-77092872D01*
X147098056Y-77092872D01*
X147011112Y-77111353D01*
X146917712Y-77131206D01*
X146911682Y-77133891D01*
X146911681Y-77133891D01*
X146749278Y-77206197D01*
X146749276Y-77206198D01*
X146743248Y-77208882D01*
X146588747Y-77321134D01*
X146460960Y-77463056D01*
X146365473Y-77628444D01*
X146306458Y-77810072D01*
X146286496Y-78000000D01*
X143275264Y-78000000D01*
X143293106Y-77984540D01*
X143345442Y-77973154D01*
X145251331Y-77973061D01*
X145269448Y-77973060D01*
X145269345Y-77921233D01*
X145268003Y-77249466D01*
X145266552Y-76523060D01*
X145253066Y-76523060D01*
X143456179Y-76523108D01*
X141645450Y-76523157D01*
X141577330Y-76503157D01*
X141530836Y-76449502D01*
X141519448Y-76397157D01*
X141519448Y-75300000D01*
X159686496Y-75300000D01*
X159706458Y-75489928D01*
X159765473Y-75671556D01*
X159860960Y-75836944D01*
X159988747Y-75978866D01*
X160143248Y-76091118D01*
X160149276Y-76093802D01*
X160149278Y-76093803D01*
X160233332Y-76131226D01*
X160317712Y-76168794D01*
X160411113Y-76188647D01*
X160498056Y-76207128D01*
X160498061Y-76207128D01*
X160504513Y-76208500D01*
X160695487Y-76208500D01*
X160701939Y-76207128D01*
X160701944Y-76207128D01*
X160788887Y-76188647D01*
X160882288Y-76168794D01*
X160966668Y-76131226D01*
X161050722Y-76093803D01*
X161050724Y-76093802D01*
X161056752Y-76091118D01*
X161211253Y-75978866D01*
X161339040Y-75836944D01*
X161434527Y-75671556D01*
X161457777Y-75600000D01*
X169586496Y-75600000D01*
X169606458Y-75789928D01*
X169665473Y-75971556D01*
X169760960Y-76136944D01*
X169888747Y-76278866D01*
X170043248Y-76391118D01*
X170049276Y-76393802D01*
X170049278Y-76393803D01*
X170174381Y-76449502D01*
X170217712Y-76468794D01*
X170311112Y-76488647D01*
X170398056Y-76507128D01*
X170398061Y-76507128D01*
X170404513Y-76508500D01*
X170595487Y-76508500D01*
X170601939Y-76507128D01*
X170601944Y-76507128D01*
X170688888Y-76488647D01*
X170782288Y-76468794D01*
X170825619Y-76449502D01*
X170950722Y-76393803D01*
X170950724Y-76393802D01*
X170956752Y-76391118D01*
X171111253Y-76278866D01*
X171239040Y-76136944D01*
X171334527Y-75971556D01*
X171393542Y-75789928D01*
X171413504Y-75600000D01*
X171393542Y-75410072D01*
X171334527Y-75228444D01*
X171239040Y-75063056D01*
X171111253Y-74921134D01*
X170956752Y-74808882D01*
X170950724Y-74806198D01*
X170950722Y-74806197D01*
X170788319Y-74733891D01*
X170788318Y-74733891D01*
X170782288Y-74731206D01*
X170688887Y-74711353D01*
X170601944Y-74692872D01*
X170601939Y-74692872D01*
X170595487Y-74691500D01*
X170404513Y-74691500D01*
X170398061Y-74692872D01*
X170398056Y-74692872D01*
X170311113Y-74711353D01*
X170217712Y-74731206D01*
X170211682Y-74733891D01*
X170211681Y-74733891D01*
X170049278Y-74806197D01*
X170049276Y-74806198D01*
X170043248Y-74808882D01*
X169888747Y-74921134D01*
X169760960Y-75063056D01*
X169665473Y-75228444D01*
X169606458Y-75410072D01*
X169586496Y-75600000D01*
X161457777Y-75600000D01*
X161493542Y-75489928D01*
X161513504Y-75300000D01*
X161493542Y-75110072D01*
X161434527Y-74928444D01*
X161339040Y-74763056D01*
X161211253Y-74621134D01*
X161056752Y-74508882D01*
X161050724Y-74506198D01*
X161050722Y-74506197D01*
X160888319Y-74433891D01*
X160888318Y-74433891D01*
X160882288Y-74431206D01*
X160788888Y-74411353D01*
X160701944Y-74392872D01*
X160701939Y-74392872D01*
X160695487Y-74391500D01*
X160504513Y-74391500D01*
X160498061Y-74392872D01*
X160498056Y-74392872D01*
X160411112Y-74411353D01*
X160317712Y-74431206D01*
X160311682Y-74433891D01*
X160311681Y-74433891D01*
X160149278Y-74506197D01*
X160149276Y-74506198D01*
X160143248Y-74508882D01*
X159988747Y-74621134D01*
X159860960Y-74763056D01*
X159765473Y-74928444D01*
X159706458Y-75110072D01*
X159686496Y-75300000D01*
X141519448Y-75300000D01*
X141519448Y-73600000D01*
X142686496Y-73600000D01*
X142687186Y-73606565D01*
X142705261Y-73778535D01*
X142706458Y-73789928D01*
X142765473Y-73971556D01*
X142860960Y-74136944D01*
X142988747Y-74278866D01*
X143143248Y-74391118D01*
X143149276Y-74393802D01*
X143149278Y-74393803D01*
X143239318Y-74433891D01*
X143317712Y-74468794D01*
X143411112Y-74488647D01*
X143498056Y-74507128D01*
X143498061Y-74507128D01*
X143504513Y-74508500D01*
X143695487Y-74508500D01*
X143701939Y-74507128D01*
X143701944Y-74507128D01*
X143788888Y-74488647D01*
X143882288Y-74468794D01*
X143960682Y-74433891D01*
X144050722Y-74393803D01*
X144050724Y-74393802D01*
X144056752Y-74391118D01*
X144211253Y-74278866D01*
X144339040Y-74136944D01*
X144434527Y-73971556D01*
X144493542Y-73789928D01*
X144494740Y-73778535D01*
X144512814Y-73606565D01*
X144513504Y-73600000D01*
X144493542Y-73410072D01*
X144434527Y-73228444D01*
X144415464Y-73195425D01*
X144365498Y-73108882D01*
X144339040Y-73063056D01*
X144289821Y-73008392D01*
X144215675Y-72926045D01*
X144215674Y-72926044D01*
X144211253Y-72921134D01*
X144105975Y-72844645D01*
X144062094Y-72812763D01*
X144062093Y-72812762D01*
X144056752Y-72808882D01*
X144050724Y-72806198D01*
X144050722Y-72806197D01*
X143888319Y-72733891D01*
X143888318Y-72733891D01*
X143882288Y-72731206D01*
X143766362Y-72706565D01*
X143735477Y-72700000D01*
X157386496Y-72700000D01*
X157387186Y-72706565D01*
X157401699Y-72844645D01*
X157406458Y-72889928D01*
X157465473Y-73071556D01*
X157560960Y-73236944D01*
X157688747Y-73378866D01*
X157843248Y-73491118D01*
X157849276Y-73493802D01*
X157849278Y-73493803D01*
X158011681Y-73566109D01*
X158017712Y-73568794D01*
X158111112Y-73588647D01*
X158198056Y-73607128D01*
X158198061Y-73607128D01*
X158204513Y-73608500D01*
X158395487Y-73608500D01*
X158401939Y-73607128D01*
X158401944Y-73607128D01*
X158488888Y-73588647D01*
X158582288Y-73568794D01*
X158588319Y-73566109D01*
X158750722Y-73493803D01*
X158750724Y-73493802D01*
X158756752Y-73491118D01*
X158911253Y-73378866D01*
X159039040Y-73236944D01*
X159134527Y-73071556D01*
X159193542Y-72889928D01*
X159198302Y-72844645D01*
X159212814Y-72706565D01*
X159213504Y-72700000D01*
X159193542Y-72510072D01*
X159134527Y-72328444D01*
X159039040Y-72163056D01*
X158911253Y-72021134D01*
X158756752Y-71908882D01*
X158750724Y-71906198D01*
X158750722Y-71906197D01*
X158588319Y-71833891D01*
X158588318Y-71833891D01*
X158582288Y-71831206D01*
X158488887Y-71811353D01*
X158401944Y-71792872D01*
X158401939Y-71792872D01*
X158395487Y-71791500D01*
X158204513Y-71791500D01*
X158198061Y-71792872D01*
X158198056Y-71792872D01*
X158111113Y-71811353D01*
X158017712Y-71831206D01*
X158011682Y-71833891D01*
X158011681Y-71833891D01*
X157849278Y-71906197D01*
X157849276Y-71906198D01*
X157843248Y-71908882D01*
X157688747Y-72021134D01*
X157560960Y-72163056D01*
X157465473Y-72328444D01*
X157406458Y-72510072D01*
X157386496Y-72700000D01*
X143735477Y-72700000D01*
X143701944Y-72692872D01*
X143701939Y-72692872D01*
X143695487Y-72691500D01*
X143504513Y-72691500D01*
X143498061Y-72692872D01*
X143498056Y-72692872D01*
X143433638Y-72706565D01*
X143317712Y-72731206D01*
X143311682Y-72733891D01*
X143311681Y-72733891D01*
X143149278Y-72806197D01*
X143149276Y-72806198D01*
X143143248Y-72808882D01*
X143137907Y-72812762D01*
X143137906Y-72812763D01*
X143094025Y-72844645D01*
X142988747Y-72921134D01*
X142984326Y-72926044D01*
X142984325Y-72926045D01*
X142910180Y-73008392D01*
X142860960Y-73063056D01*
X142834502Y-73108882D01*
X142784537Y-73195425D01*
X142765473Y-73228444D01*
X142706458Y-73410072D01*
X142686496Y-73600000D01*
X141519448Y-73600000D01*
X141519448Y-72723160D01*
X136269448Y-72723160D01*
X136269448Y-80673160D01*
X128462121Y-80673160D01*
X128444066Y-80639204D01*
X128373709Y-80552938D01*
X128322960Y-80490713D01*
X128322957Y-80490710D01*
X128319065Y-80485938D01*
X128312718Y-80480687D01*
X128171425Y-80363799D01*
X128171421Y-80363797D01*
X128166675Y-80359870D01*
X127992701Y-80265802D01*
X127803768Y-80207318D01*
X127797643Y-80206674D01*
X127797642Y-80206674D01*
X127613204Y-80187289D01*
X127613202Y-80187289D01*
X127607075Y-80186645D01*
X127540377Y-80192715D01*
X127416251Y-80204011D01*
X127416248Y-80204012D01*
X127410112Y-80204570D01*
X127404206Y-80206308D01*
X127404202Y-80206309D01*
X127299076Y-80237249D01*
X127220381Y-80260410D01*
X127214923Y-80263263D01*
X127214919Y-80263265D01*
X127124147Y-80310720D01*
X127045110Y-80352040D01*
X126890975Y-80475968D01*
X126796153Y-80588972D01*
X126737046Y-80628297D01*
X126666058Y-80629423D01*
X126601991Y-80587615D01*
X126522960Y-80490713D01*
X126522957Y-80490710D01*
X126519065Y-80485938D01*
X126512718Y-80480687D01*
X126371425Y-80363799D01*
X126371421Y-80363797D01*
X126366675Y-80359870D01*
X126276335Y-80311023D01*
X126225928Y-80261029D01*
X126210550Y-80191718D01*
X126235086Y-80125096D01*
X126279453Y-80087723D01*
X126342996Y-80055625D01*
X126498847Y-79933861D01*
X126628078Y-79784145D01*
X126725769Y-79612179D01*
X126788197Y-79424513D01*
X126812985Y-79228295D01*
X126813380Y-79200000D01*
X126794080Y-79003167D01*
X126736916Y-78813831D01*
X126644066Y-78639204D01*
X126573709Y-78552938D01*
X126522960Y-78490713D01*
X126522957Y-78490710D01*
X126519065Y-78485938D01*
X126514316Y-78482009D01*
X126371425Y-78363799D01*
X126371421Y-78363797D01*
X126366675Y-78359870D01*
X126192701Y-78265802D01*
X126003768Y-78207318D01*
X125997643Y-78206674D01*
X125997642Y-78206674D01*
X125813204Y-78187289D01*
X125813202Y-78187289D01*
X125807075Y-78186645D01*
X125724576Y-78194153D01*
X125616251Y-78204011D01*
X125616248Y-78204012D01*
X125610112Y-78204570D01*
X125604206Y-78206308D01*
X125604202Y-78206309D01*
X125499076Y-78237249D01*
X125420381Y-78260410D01*
X125414923Y-78263263D01*
X125414919Y-78263265D01*
X125324147Y-78310720D01*
X125245110Y-78352040D01*
X125212950Y-78377897D01*
X125147330Y-78404993D01*
X125077476Y-78392310D01*
X125025567Y-78343874D01*
X125008000Y-78279700D01*
X125008000Y-73385851D01*
X133786719Y-73385851D01*
X133787235Y-73391995D01*
X133802081Y-73568794D01*
X133803268Y-73582934D01*
X133857783Y-73773050D01*
X133948187Y-73948956D01*
X134071035Y-74103953D01*
X134221650Y-74232136D01*
X134394294Y-74328624D01*
X134582392Y-74389740D01*
X134778777Y-74413158D01*
X134784912Y-74412686D01*
X134784914Y-74412686D01*
X134969830Y-74398457D01*
X134969834Y-74398456D01*
X134975972Y-74397984D01*
X135166463Y-74344798D01*
X135171967Y-74342018D01*
X135171969Y-74342017D01*
X135337495Y-74258404D01*
X135337497Y-74258403D01*
X135342996Y-74255625D01*
X135498847Y-74133861D01*
X135628078Y-73984145D01*
X135725769Y-73812179D01*
X135788197Y-73624513D01*
X135812985Y-73428295D01*
X135813380Y-73400000D01*
X135794080Y-73203167D01*
X135736916Y-73013831D01*
X135644066Y-72839204D01*
X135530534Y-72700000D01*
X135522960Y-72690713D01*
X135522957Y-72690710D01*
X135519065Y-72685938D01*
X135512724Y-72680692D01*
X135371425Y-72563799D01*
X135371421Y-72563797D01*
X135366675Y-72559870D01*
X135192701Y-72465802D01*
X135003768Y-72407318D01*
X134997643Y-72406674D01*
X134997642Y-72406674D01*
X134813204Y-72387289D01*
X134813202Y-72387289D01*
X134807075Y-72386645D01*
X134724576Y-72394153D01*
X134616251Y-72404011D01*
X134616248Y-72404012D01*
X134610112Y-72404570D01*
X134604206Y-72406308D01*
X134604202Y-72406309D01*
X134499076Y-72437249D01*
X134420381Y-72460410D01*
X134414923Y-72463263D01*
X134414919Y-72463265D01*
X134325387Y-72510072D01*
X134245110Y-72552040D01*
X134090975Y-72675968D01*
X133963846Y-72827474D01*
X133960879Y-72832872D01*
X133960875Y-72832877D01*
X133914491Y-72917251D01*
X133868567Y-73000787D01*
X133866706Y-73006654D01*
X133866705Y-73006656D01*
X133844302Y-73077279D01*
X133808765Y-73189306D01*
X133786719Y-73385851D01*
X125008000Y-73385851D01*
X125008000Y-69485851D01*
X141686719Y-69485851D01*
X141703268Y-69682934D01*
X141757783Y-69873050D01*
X141760602Y-69878535D01*
X141816468Y-69987237D01*
X141848187Y-70048956D01*
X141971035Y-70203953D01*
X142121650Y-70332136D01*
X142294294Y-70428624D01*
X142482392Y-70489740D01*
X142678777Y-70513158D01*
X142684912Y-70512686D01*
X142684914Y-70512686D01*
X142869830Y-70498457D01*
X142869834Y-70498456D01*
X142875972Y-70497984D01*
X143066463Y-70444798D01*
X143071967Y-70442018D01*
X143071969Y-70442017D01*
X143237495Y-70358404D01*
X143237497Y-70358403D01*
X143242996Y-70355625D01*
X143398847Y-70233861D01*
X143492489Y-70125376D01*
X143524049Y-70088813D01*
X143524050Y-70088811D01*
X143528078Y-70084145D01*
X143625769Y-69912179D01*
X143688197Y-69724513D01*
X143712985Y-69528295D01*
X143713380Y-69500000D01*
X143694080Y-69303167D01*
X143662932Y-69200000D01*
X147086496Y-69200000D01*
X147106458Y-69389928D01*
X147165473Y-69571556D01*
X147260960Y-69736944D01*
X147265378Y-69741851D01*
X147265379Y-69741852D01*
X147383510Y-69873050D01*
X147388747Y-69878866D01*
X147543248Y-69991118D01*
X147549276Y-69993802D01*
X147549278Y-69993803D01*
X147711681Y-70066109D01*
X147717712Y-70068794D01*
X147811113Y-70088647D01*
X147898056Y-70107128D01*
X147898061Y-70107128D01*
X147904513Y-70108500D01*
X148095487Y-70108500D01*
X148101939Y-70107128D01*
X148101944Y-70107128D01*
X148188887Y-70088647D01*
X148282288Y-70068794D01*
X148288319Y-70066109D01*
X148450722Y-69993803D01*
X148450724Y-69993802D01*
X148456752Y-69991118D01*
X148611253Y-69878866D01*
X148616490Y-69873050D01*
X148734621Y-69741852D01*
X148734622Y-69741851D01*
X148739040Y-69736944D01*
X148834527Y-69571556D01*
X148893542Y-69389928D01*
X148913504Y-69200000D01*
X148912814Y-69193435D01*
X148894232Y-69016635D01*
X148894232Y-69016633D01*
X148893542Y-69010072D01*
X148834527Y-68828444D01*
X148739040Y-68663056D01*
X148732600Y-68655903D01*
X148615675Y-68526045D01*
X148615674Y-68526044D01*
X148611253Y-68521134D01*
X148512157Y-68449136D01*
X148462094Y-68412763D01*
X148462093Y-68412762D01*
X148456752Y-68408882D01*
X148450724Y-68406198D01*
X148450722Y-68406197D01*
X148288319Y-68333891D01*
X148288318Y-68333891D01*
X148282288Y-68331206D01*
X148188888Y-68311353D01*
X148101944Y-68292872D01*
X148101939Y-68292872D01*
X148095487Y-68291500D01*
X147904513Y-68291500D01*
X147898061Y-68292872D01*
X147898056Y-68292872D01*
X147811112Y-68311353D01*
X147717712Y-68331206D01*
X147711682Y-68333891D01*
X147711681Y-68333891D01*
X147549278Y-68406197D01*
X147549276Y-68406198D01*
X147543248Y-68408882D01*
X147537907Y-68412762D01*
X147537906Y-68412763D01*
X147487843Y-68449136D01*
X147388747Y-68521134D01*
X147384326Y-68526044D01*
X147384325Y-68526045D01*
X147267401Y-68655903D01*
X147260960Y-68663056D01*
X147165473Y-68828444D01*
X147106458Y-69010072D01*
X147105768Y-69016633D01*
X147105768Y-69016635D01*
X147087186Y-69193435D01*
X147086496Y-69200000D01*
X143662932Y-69200000D01*
X143636916Y-69113831D01*
X143544066Y-68939204D01*
X143449065Y-68822721D01*
X143422960Y-68790713D01*
X143422957Y-68790710D01*
X143419065Y-68785938D01*
X143412724Y-68780692D01*
X143271425Y-68663799D01*
X143271421Y-68663797D01*
X143266675Y-68659870D01*
X143092701Y-68565802D01*
X142903768Y-68507318D01*
X142897643Y-68506674D01*
X142897642Y-68506674D01*
X142713204Y-68487289D01*
X142713202Y-68487289D01*
X142707075Y-68486645D01*
X142624576Y-68494153D01*
X142516251Y-68504011D01*
X142516248Y-68504012D01*
X142510112Y-68504570D01*
X142504206Y-68506308D01*
X142504202Y-68506309D01*
X142416449Y-68532136D01*
X142320381Y-68560410D01*
X142314923Y-68563263D01*
X142314919Y-68563265D01*
X142224147Y-68610720D01*
X142145110Y-68652040D01*
X141990975Y-68775968D01*
X141863846Y-68927474D01*
X141860879Y-68932872D01*
X141860875Y-68932877D01*
X141782095Y-69076180D01*
X141768567Y-69100787D01*
X141766706Y-69106654D01*
X141766705Y-69106656D01*
X141735012Y-69206565D01*
X141708765Y-69289306D01*
X141686719Y-69485851D01*
X125008000Y-69485851D01*
X125008000Y-67685851D01*
X136086719Y-67685851D01*
X136103268Y-67882934D01*
X136157783Y-68073050D01*
X136248187Y-68248956D01*
X136371035Y-68403953D01*
X136375728Y-68407947D01*
X136375729Y-68407948D01*
X136508723Y-68521134D01*
X136521650Y-68532136D01*
X136694294Y-68628624D01*
X136882392Y-68689740D01*
X137078777Y-68713158D01*
X137084912Y-68712686D01*
X137084914Y-68712686D01*
X137269830Y-68698457D01*
X137269834Y-68698456D01*
X137275972Y-68697984D01*
X137466463Y-68644798D01*
X137471967Y-68642018D01*
X137471969Y-68642017D01*
X137637495Y-68558404D01*
X137637497Y-68558403D01*
X137642996Y-68555625D01*
X137798847Y-68433861D01*
X137920545Y-68292872D01*
X137924049Y-68288813D01*
X137924050Y-68288811D01*
X137928078Y-68284145D01*
X138025769Y-68112179D01*
X138088197Y-67924513D01*
X138112985Y-67728295D01*
X138113380Y-67700000D01*
X138094080Y-67503167D01*
X138036916Y-67313831D01*
X137944066Y-67139204D01*
X137873709Y-67052938D01*
X137822960Y-66990713D01*
X137822957Y-66990710D01*
X137819065Y-66985938D01*
X137812724Y-66980692D01*
X137671425Y-66863799D01*
X137671421Y-66863797D01*
X137666675Y-66859870D01*
X137492701Y-66765802D01*
X137303768Y-66707318D01*
X137297643Y-66706674D01*
X137297642Y-66706674D01*
X137113204Y-66687289D01*
X137113202Y-66687289D01*
X137107075Y-66686645D01*
X137024576Y-66694153D01*
X136916251Y-66704011D01*
X136916248Y-66704012D01*
X136910112Y-66704570D01*
X136904206Y-66706308D01*
X136904202Y-66706309D01*
X136799076Y-66737249D01*
X136720381Y-66760410D01*
X136714923Y-66763263D01*
X136714919Y-66763265D01*
X136624147Y-66810720D01*
X136545110Y-66852040D01*
X136390975Y-66975968D01*
X136263846Y-67127474D01*
X136260879Y-67132872D01*
X136260875Y-67132877D01*
X136257397Y-67139204D01*
X136168567Y-67300787D01*
X136166706Y-67306654D01*
X136166705Y-67306656D01*
X136110627Y-67483436D01*
X136108765Y-67489306D01*
X136086719Y-67685851D01*
X125008000Y-67685851D01*
X125008000Y-59625008D01*
X125028002Y-59556887D01*
X125081658Y-59510394D01*
X125151932Y-59500290D01*
X125216512Y-59529784D01*
X125239673Y-59556384D01*
X125407668Y-59815075D01*
X125639098Y-60100867D01*
X125899133Y-60360902D01*
X126184925Y-60592332D01*
X126493342Y-60792620D01*
X126496276Y-60794115D01*
X126496283Y-60794119D01*
X126818066Y-60958075D01*
X126821006Y-60959573D01*
X127164326Y-61091361D01*
X127519541Y-61186541D01*
X127712558Y-61217112D01*
X127879511Y-61243555D01*
X127879519Y-61243556D01*
X127882759Y-61244069D01*
X128250000Y-61263315D01*
X128617241Y-61244069D01*
X128620481Y-61243556D01*
X128620489Y-61243555D01*
X128787442Y-61217112D01*
X128980459Y-61186541D01*
X129335674Y-61091361D01*
X129678994Y-60959573D01*
X129681934Y-60958075D01*
X130003717Y-60794119D01*
X130003724Y-60794115D01*
X130006658Y-60792620D01*
X130315075Y-60592332D01*
X130600867Y-60360902D01*
X130860902Y-60100867D01*
X131092332Y-59815075D01*
X131215762Y-59625008D01*
X131290822Y-59509426D01*
X131290824Y-59509423D01*
X131292620Y-59506657D01*
X131295865Y-59500290D01*
X131458075Y-59181934D01*
X131459573Y-59178994D01*
X131591361Y-58835674D01*
X131686541Y-58480459D01*
X131730055Y-58205724D01*
X131743555Y-58120489D01*
X131743556Y-58120481D01*
X131744069Y-58117241D01*
X131763315Y-57750000D01*
X131744069Y-57382759D01*
X131725822Y-57267548D01*
X131694518Y-57069908D01*
X131686541Y-57019541D01*
X131672381Y-56966695D01*
X136397251Y-56966695D01*
X136397548Y-56971848D01*
X136397548Y-56971851D01*
X136403011Y-57066590D01*
X136410110Y-57189715D01*
X136411247Y-57194761D01*
X136411248Y-57194767D01*
X136425606Y-57258475D01*
X136459222Y-57407639D01*
X136543266Y-57614616D01*
X136659987Y-57805088D01*
X136806250Y-57973938D01*
X136978126Y-58116632D01*
X137171000Y-58229338D01*
X137379692Y-58309030D01*
X137384760Y-58310061D01*
X137384763Y-58310062D01*
X137492017Y-58331883D01*
X137598597Y-58353567D01*
X137603772Y-58353757D01*
X137603774Y-58353757D01*
X137816673Y-58361564D01*
X137816677Y-58361564D01*
X137821837Y-58361753D01*
X137826957Y-58361097D01*
X137826959Y-58361097D01*
X138038288Y-58334025D01*
X138038289Y-58334025D01*
X138043416Y-58333368D01*
X138048366Y-58331883D01*
X138252429Y-58270661D01*
X138252434Y-58270659D01*
X138257384Y-58269174D01*
X138457994Y-58170896D01*
X138639860Y-58041173D01*
X138707331Y-57973938D01*
X138748479Y-57932933D01*
X138810851Y-57899017D01*
X138881658Y-57904205D01*
X138938419Y-57946851D01*
X138955401Y-57977954D01*
X138996676Y-58088054D01*
X139005214Y-58103649D01*
X139081715Y-58205724D01*
X139094276Y-58218285D01*
X139196351Y-58294786D01*
X139211946Y-58303324D01*
X139332394Y-58348478D01*
X139347649Y-58352105D01*
X139398514Y-58357631D01*
X139405328Y-58358000D01*
X140027885Y-58358000D01*
X140043124Y-58353525D01*
X140044329Y-58352135D01*
X140046000Y-58344452D01*
X140046000Y-58339884D01*
X140554000Y-58339884D01*
X140558475Y-58355123D01*
X140559865Y-58356328D01*
X140567548Y-58357999D01*
X141194669Y-58357999D01*
X141201490Y-58357629D01*
X141252352Y-58352105D01*
X141267604Y-58348479D01*
X141388054Y-58303324D01*
X141403649Y-58294786D01*
X141505724Y-58218285D01*
X141518285Y-58205724D01*
X141594786Y-58103649D01*
X141603324Y-58088054D01*
X141648478Y-57967606D01*
X141652105Y-57952351D01*
X141657631Y-57901486D01*
X141657813Y-57898134D01*
X147301500Y-57898134D01*
X147308255Y-57960316D01*
X147359385Y-58096705D01*
X147446739Y-58213261D01*
X147563295Y-58300615D01*
X147699684Y-58351745D01*
X147761866Y-58358500D01*
X149558134Y-58358500D01*
X149620316Y-58351745D01*
X149756705Y-58300615D01*
X149873261Y-58213261D01*
X149960615Y-58096705D01*
X149982799Y-58037529D01*
X150004598Y-57979382D01*
X150047240Y-57922618D01*
X150113802Y-57897918D01*
X150183150Y-57913126D01*
X150217817Y-57941114D01*
X150246250Y-57973938D01*
X150418126Y-58116632D01*
X150611000Y-58229338D01*
X150819692Y-58309030D01*
X150824760Y-58310061D01*
X150824763Y-58310062D01*
X150932017Y-58331883D01*
X151038597Y-58353567D01*
X151043772Y-58353757D01*
X151043774Y-58353757D01*
X151256673Y-58361564D01*
X151256677Y-58361564D01*
X151261837Y-58361753D01*
X151266957Y-58361097D01*
X151266959Y-58361097D01*
X151478288Y-58334025D01*
X151478289Y-58334025D01*
X151483416Y-58333368D01*
X151488366Y-58331883D01*
X151692429Y-58270661D01*
X151692434Y-58270659D01*
X151697384Y-58269174D01*
X151897994Y-58170896D01*
X152079860Y-58041173D01*
X152238096Y-57883489D01*
X152297594Y-57800689D01*
X152365435Y-57706277D01*
X152368453Y-57702077D01*
X152467430Y-57501811D01*
X152532370Y-57288069D01*
X152561529Y-57066590D01*
X152562679Y-57019541D01*
X152563074Y-57003365D01*
X152563074Y-57003361D01*
X152563156Y-57000000D01*
X152544852Y-56777361D01*
X152490431Y-56560702D01*
X152401354Y-56355840D01*
X152280014Y-56168277D01*
X152129670Y-56003051D01*
X152125619Y-55999852D01*
X152125615Y-55999848D01*
X151958414Y-55867800D01*
X151958410Y-55867798D01*
X151954359Y-55864598D01*
X151758789Y-55756638D01*
X151753920Y-55754914D01*
X151753916Y-55754912D01*
X151553087Y-55683795D01*
X151553083Y-55683794D01*
X151548212Y-55682069D01*
X151543119Y-55681162D01*
X151543116Y-55681161D01*
X151333373Y-55643800D01*
X151333367Y-55643799D01*
X151328284Y-55642894D01*
X151254452Y-55641992D01*
X151110081Y-55640228D01*
X151110079Y-55640228D01*
X151104911Y-55640165D01*
X150884091Y-55673955D01*
X150671756Y-55743357D01*
X150473607Y-55846507D01*
X150469474Y-55849610D01*
X150469471Y-55849612D01*
X150386450Y-55911946D01*
X150294965Y-55980635D01*
X150216360Y-56062891D01*
X150214283Y-56065064D01*
X150152759Y-56100494D01*
X150081846Y-56097037D01*
X150024060Y-56055791D01*
X150005207Y-56022243D01*
X149963767Y-55911703D01*
X149960615Y-55903295D01*
X149873261Y-55786739D01*
X149756705Y-55699385D01*
X149620316Y-55648255D01*
X149558134Y-55641500D01*
X147761866Y-55641500D01*
X147699684Y-55648255D01*
X147563295Y-55699385D01*
X147446739Y-55786739D01*
X147359385Y-55903295D01*
X147308255Y-56039684D01*
X147301500Y-56101866D01*
X147301500Y-57898134D01*
X141657813Y-57898134D01*
X141658000Y-57894672D01*
X141658000Y-57272115D01*
X141653525Y-57256876D01*
X141652135Y-57255671D01*
X141644452Y-57254000D01*
X140572115Y-57254000D01*
X140556876Y-57258475D01*
X140555671Y-57259865D01*
X140554000Y-57267548D01*
X140554000Y-58339884D01*
X140046000Y-58339884D01*
X140046000Y-56727885D01*
X140554000Y-56727885D01*
X140558475Y-56743124D01*
X140559865Y-56744329D01*
X140567548Y-56746000D01*
X141639884Y-56746000D01*
X141655123Y-56741525D01*
X141656328Y-56740135D01*
X141657999Y-56732452D01*
X141657999Y-56105331D01*
X141657629Y-56098510D01*
X141652105Y-56047648D01*
X141648479Y-56032396D01*
X141603324Y-55911946D01*
X141594786Y-55896351D01*
X141518285Y-55794276D01*
X141505724Y-55781715D01*
X141403649Y-55705214D01*
X141388054Y-55696676D01*
X141267606Y-55651522D01*
X141252351Y-55647895D01*
X141201486Y-55642369D01*
X141194672Y-55642000D01*
X140572115Y-55642000D01*
X140556876Y-55646475D01*
X140555671Y-55647865D01*
X140554000Y-55655548D01*
X140554000Y-56727885D01*
X140046000Y-56727885D01*
X140046000Y-55660116D01*
X140041525Y-55644877D01*
X140040135Y-55643672D01*
X140032452Y-55642001D01*
X139405331Y-55642001D01*
X139398510Y-55642371D01*
X139347648Y-55647895D01*
X139332396Y-55651521D01*
X139211946Y-55696676D01*
X139196351Y-55705214D01*
X139094276Y-55781715D01*
X139081715Y-55794276D01*
X139005214Y-55896351D01*
X138996676Y-55911946D01*
X138955297Y-56022322D01*
X138912655Y-56079087D01*
X138846093Y-56103786D01*
X138776744Y-56088578D01*
X138744121Y-56062891D01*
X138693151Y-56006876D01*
X138693145Y-56006870D01*
X138689670Y-56003051D01*
X138685619Y-55999852D01*
X138685615Y-55999848D01*
X138518414Y-55867800D01*
X138518410Y-55867798D01*
X138514359Y-55864598D01*
X138318789Y-55756638D01*
X138313920Y-55754914D01*
X138313916Y-55754912D01*
X138113087Y-55683795D01*
X138113083Y-55683794D01*
X138108212Y-55682069D01*
X138103119Y-55681162D01*
X138103116Y-55681161D01*
X137893373Y-55643800D01*
X137893367Y-55643799D01*
X137888284Y-55642894D01*
X137814452Y-55641992D01*
X137670081Y-55640228D01*
X137670079Y-55640228D01*
X137664911Y-55640165D01*
X137444091Y-55673955D01*
X137231756Y-55743357D01*
X137033607Y-55846507D01*
X137029474Y-55849610D01*
X137029471Y-55849612D01*
X136946450Y-55911946D01*
X136854965Y-55980635D01*
X136815203Y-56022243D01*
X136743729Y-56097037D01*
X136700629Y-56142138D01*
X136574743Y-56326680D01*
X136480688Y-56529305D01*
X136420989Y-56744570D01*
X136397251Y-56966695D01*
X131672381Y-56966695D01*
X131591361Y-56664326D01*
X131459573Y-56321006D01*
X131349681Y-56105331D01*
X131294119Y-55996284D01*
X131294115Y-55996277D01*
X131292620Y-55993343D01*
X131284368Y-55980635D01*
X131094134Y-55687700D01*
X131092332Y-55684925D01*
X130860902Y-55399133D01*
X130600867Y-55139098D01*
X130315075Y-54907668D01*
X130056385Y-54739673D01*
X130010148Y-54685796D01*
X130000378Y-54615475D01*
X130030178Y-54551035D01*
X130090086Y-54512936D01*
X130125009Y-54508000D01*
X168874992Y-54508000D01*
X168943113Y-54528002D01*
G37*
%TD.AperFunction*%
%TD*%
M02*
