%TF.GenerationSoftware,KiCad,Pcbnew,(6.0.0)*%
%TF.CreationDate,2023-02-04T05:02:53+03:00*%
%TF.ProjectId,STM32F4_breakout,53544d33-3246-4345-9f62-7265616b6f75,rev?*%
%TF.SameCoordinates,Original*%
%TF.FileFunction,Soldermask,Top*%
%TF.FilePolarity,Negative*%
%FSLAX46Y46*%
G04 Gerber Fmt 4.6, Leading zero omitted, Abs format (unit mm)*
G04 Created by KiCad (PCBNEW (6.0.0)) date 2023-02-04 05:02:53*
%MOMM*%
%LPD*%
G01*
G04 APERTURE LIST*
G04 Aperture macros list*
%AMRoundRect*
0 Rectangle with rounded corners*
0 $1 Rounding radius*
0 $2 $3 $4 $5 $6 $7 $8 $9 X,Y pos of 4 corners*
0 Add a 4 corners polygon primitive as box body*
4,1,4,$2,$3,$4,$5,$6,$7,$8,$9,$2,$3,0*
0 Add four circle primitives for the rounded corners*
1,1,$1+$1,$2,$3*
1,1,$1+$1,$4,$5*
1,1,$1+$1,$6,$7*
1,1,$1+$1,$8,$9*
0 Add four rect primitives between the rounded corners*
20,1,$1+$1,$2,$3,$4,$5,0*
20,1,$1+$1,$4,$5,$6,$7,0*
20,1,$1+$1,$6,$7,$8,$9,0*
20,1,$1+$1,$8,$9,$2,$3,0*%
G04 Aperture macros list end*
%ADD10RoundRect,0.135000X-0.135000X-0.185000X0.135000X-0.185000X0.135000X0.185000X-0.135000X0.185000X0*%
%ADD11RoundRect,0.140000X0.140000X0.170000X-0.140000X0.170000X-0.140000X-0.170000X0.140000X-0.170000X0*%
%ADD12RoundRect,0.250000X0.475000X-0.250000X0.475000X0.250000X-0.475000X0.250000X-0.475000X-0.250000X0*%
%ADD13RoundRect,0.140000X0.170000X-0.140000X0.170000X0.140000X-0.170000X0.140000X-0.170000X-0.140000X0*%
%ADD14RoundRect,0.218750X0.218750X0.256250X-0.218750X0.256250X-0.218750X-0.256250X0.218750X-0.256250X0*%
%ADD15RoundRect,0.218750X-0.381250X0.218750X-0.381250X-0.218750X0.381250X-0.218750X0.381250X0.218750X0*%
%ADD16RoundRect,0.140000X-0.140000X-0.170000X0.140000X-0.170000X0.140000X0.170000X-0.140000X0.170000X0*%
%ADD17RoundRect,0.225000X-0.250000X0.225000X-0.250000X-0.225000X0.250000X-0.225000X0.250000X0.225000X0*%
%ADD18R,3.150000X1.000000*%
%ADD19RoundRect,0.135000X-0.185000X0.135000X-0.185000X-0.135000X0.185000X-0.135000X0.185000X0.135000X0*%
%ADD20RoundRect,0.250000X0.250000X0.475000X-0.250000X0.475000X-0.250000X-0.475000X0.250000X-0.475000X0*%
%ADD21R,1.500000X2.000000*%
%ADD22R,3.800000X2.000000*%
%ADD23RoundRect,0.135000X0.185000X-0.135000X0.185000X0.135000X-0.185000X0.135000X-0.185000X-0.135000X0*%
%ADD24RoundRect,0.218750X-0.218750X-0.381250X0.218750X-0.381250X0.218750X0.381250X-0.218750X0.381250X0*%
%ADD25C,0.800000*%
%ADD26C,6.000000*%
%ADD27R,1.700000X1.700000*%
%ADD28O,1.700000X1.700000*%
%ADD29RoundRect,0.225000X0.250000X-0.225000X0.250000X0.225000X-0.250000X0.225000X-0.250000X-0.225000X0*%
%ADD30RoundRect,0.250000X0.262500X0.450000X-0.262500X0.450000X-0.262500X-0.450000X0.262500X-0.450000X0*%
%ADD31RoundRect,0.135000X0.135000X0.185000X-0.135000X0.185000X-0.135000X-0.185000X0.135000X-0.185000X0*%
%ADD32R,1.200000X1.400000*%
%ADD33RoundRect,0.225000X-0.225000X-0.250000X0.225000X-0.250000X0.225000X0.250000X-0.225000X0.250000X0*%
%ADD34R,1.200000X0.900000*%
%ADD35RoundRect,0.250000X-0.262500X-0.450000X0.262500X-0.450000X0.262500X0.450000X-0.262500X0.450000X0*%
%ADD36RoundRect,0.075000X-0.700000X-0.075000X0.700000X-0.075000X0.700000X0.075000X-0.700000X0.075000X0*%
%ADD37RoundRect,0.075000X-0.075000X-0.700000X0.075000X-0.700000X0.075000X0.700000X-0.075000X0.700000X0*%
G04 APERTURE END LIST*
D10*
%TO.C,R6*%
X141675000Y-77700000D03*
X142695000Y-77700000D03*
%TD*%
D11*
%TO.C,C5*%
X146980000Y-86100000D03*
X146020000Y-86100000D03*
%TD*%
D12*
%TO.C,C1*%
X134800000Y-76650000D03*
X134800000Y-74750000D03*
%TD*%
D13*
%TO.C,C13*%
X141500000Y-81230000D03*
X141500000Y-80270000D03*
%TD*%
%TO.C,C9*%
X156100000Y-73580000D03*
X156100000Y-72620000D03*
%TD*%
D14*
%TO.C,3.3V*%
X132037500Y-67700000D03*
X130462500Y-67700000D03*
%TD*%
D11*
%TO.C,C6*%
X146980000Y-87200000D03*
X146020000Y-87200000D03*
%TD*%
D13*
%TO.C,C14*%
X142600000Y-81230000D03*
X142600000Y-80270000D03*
%TD*%
%TO.C,C4*%
X142600000Y-74580000D03*
X142600000Y-73620000D03*
%TD*%
D15*
%TO.C,FB1*%
X132050000Y-79087500D03*
X132050000Y-81212500D03*
%TD*%
D16*
%TO.C,C11*%
X146020000Y-71300000D03*
X146980000Y-71300000D03*
%TD*%
D17*
%TO.C,C15*%
X153250000Y-86325000D03*
X153250000Y-87875000D03*
%TD*%
D16*
%TO.C,C12*%
X146000000Y-70200000D03*
X146960000Y-70200000D03*
%TD*%
%TO.C,C17*%
X138520000Y-74000000D03*
X139480000Y-74000000D03*
%TD*%
D18*
%TO.C,SWD*%
X165475000Y-63920000D03*
X170525000Y-63920000D03*
X165475000Y-66460000D03*
X170525000Y-66460000D03*
X165475000Y-69000000D03*
X170525000Y-69000000D03*
X165475000Y-71540000D03*
X170525000Y-71540000D03*
X165475000Y-74080000D03*
X170525000Y-74080000D03*
%TD*%
D19*
%TO.C,R2*%
X148000000Y-70190000D03*
X148000000Y-71210000D03*
%TD*%
D13*
%TO.C,C10*%
X157200000Y-73600000D03*
X157200000Y-72640000D03*
%TD*%
D20*
%TO.C,C2*%
X129900000Y-79200000D03*
X128000000Y-79200000D03*
%TD*%
D21*
%TO.C,U1*%
X127650000Y-76750000D03*
X129950000Y-76750000D03*
D22*
X129950000Y-70450000D03*
D21*
X132250000Y-76750000D03*
%TD*%
D23*
%TO.C,R3*%
X151800000Y-87110000D03*
X151800000Y-86090000D03*
%TD*%
D10*
%TO.C,R5*%
X147580000Y-66750000D03*
X148600000Y-66750000D03*
%TD*%
D14*
%TO.C,STAT*%
X159787500Y-82500000D03*
X158212500Y-82500000D03*
%TD*%
D24*
%TO.C,FB2*%
X139337500Y-82800000D03*
X141462500Y-82800000D03*
%TD*%
D25*
%TO.C,H3*%
X126000000Y-100250000D03*
X126659010Y-101840990D03*
X128250000Y-102500000D03*
X129840990Y-101840990D03*
D26*
X128250000Y-100250000D03*
D25*
X126659010Y-98659010D03*
X130500000Y-100250000D03*
X129840990Y-98659010D03*
X128250000Y-98000000D03*
%TD*%
D16*
%TO.C,C7*%
X154820000Y-84700000D03*
X155780000Y-84700000D03*
%TD*%
D27*
%TO.C,J1*%
X127500000Y-89775000D03*
D28*
X127500000Y-87235000D03*
%TD*%
%TO.C,3.3V*%
X137760000Y-57000000D03*
D27*
X140300000Y-57000000D03*
%TD*%
D29*
%TO.C,C3*%
X144300000Y-71875000D03*
X144300000Y-70325000D03*
%TD*%
D27*
%TO.C,UART*%
X171000000Y-79225000D03*
D28*
X171000000Y-81765000D03*
%TD*%
D27*
%TO.C,I2C*%
X148660000Y-57000000D03*
D28*
X151200000Y-57000000D03*
%TD*%
D25*
%TO.C,H1*%
X128250000Y-60000000D03*
X126000000Y-57750000D03*
X129840990Y-59340990D03*
X126659010Y-56159010D03*
X130500000Y-57750000D03*
X126659010Y-59340990D03*
X129840990Y-56159010D03*
X128250000Y-55500000D03*
D26*
X128250000Y-57750000D03*
%TD*%
D30*
%TO.C,R7*%
X159912500Y-84500000D03*
X158087500Y-84500000D03*
%TD*%
D31*
%TO.C,R4*%
X150720000Y-66800000D03*
X149700000Y-66800000D03*
%TD*%
D32*
%TO.C,XTAL*%
X138150000Y-75650000D03*
X138150000Y-77850000D03*
X139850000Y-77850000D03*
X139850000Y-75650000D03*
%TD*%
D33*
%TO.C,C16*%
X157825000Y-75000000D03*
X159375000Y-75000000D03*
%TD*%
D25*
%TO.C,H2*%
X170750000Y-55500000D03*
X169159010Y-56159010D03*
X168500000Y-57750000D03*
X172340990Y-56159010D03*
X172340990Y-59340990D03*
X173000000Y-57750000D03*
X170750000Y-60000000D03*
D26*
X170750000Y-57750000D03*
D25*
X169159010Y-59340990D03*
%TD*%
D34*
%TO.C,Fuse*%
X133700000Y-86500000D03*
X133700000Y-89800000D03*
%TD*%
D35*
%TO.C,R1*%
X133837500Y-67700000D03*
X135662500Y-67700000D03*
%TD*%
D16*
%TO.C,C8*%
X154820000Y-85800000D03*
X155780000Y-85800000D03*
%TD*%
D11*
%TO.C,C18*%
X139500000Y-79500000D03*
X138540000Y-79500000D03*
%TD*%
D36*
%TO.C,U2*%
X144325000Y-74950000D03*
X144325000Y-75450000D03*
X144325000Y-75950000D03*
X144325000Y-76450000D03*
X144325000Y-76950000D03*
X144325000Y-77450000D03*
X144325000Y-77950000D03*
X144325000Y-78450000D03*
X144325000Y-78950000D03*
X144325000Y-79450000D03*
X144325000Y-79950000D03*
X144325000Y-80450000D03*
X144325000Y-80950000D03*
X144325000Y-81450000D03*
X144325000Y-81950000D03*
X144325000Y-82450000D03*
D37*
X146250000Y-84375000D03*
X146750000Y-84375000D03*
X147250000Y-84375000D03*
X147750000Y-84375000D03*
X148250000Y-84375000D03*
X148750000Y-84375000D03*
X149250000Y-84375000D03*
X149750000Y-84375000D03*
X150250000Y-84375000D03*
X150750000Y-84375000D03*
X151250000Y-84375000D03*
X151750000Y-84375000D03*
X152250000Y-84375000D03*
X152750000Y-84375000D03*
X153250000Y-84375000D03*
X153750000Y-84375000D03*
D36*
X155675000Y-82450000D03*
X155675000Y-81950000D03*
X155675000Y-81450000D03*
X155675000Y-80950000D03*
X155675000Y-80450000D03*
X155675000Y-79950000D03*
X155675000Y-79450000D03*
X155675000Y-78950000D03*
X155675000Y-78450000D03*
X155675000Y-77950000D03*
X155675000Y-77450000D03*
X155675000Y-76950000D03*
X155675000Y-76450000D03*
X155675000Y-75950000D03*
X155675000Y-75450000D03*
X155675000Y-74950000D03*
D37*
X153750000Y-73025000D03*
X153250000Y-73025000D03*
X152750000Y-73025000D03*
X152250000Y-73025000D03*
X151750000Y-73025000D03*
X151250000Y-73025000D03*
X150750000Y-73025000D03*
X150250000Y-73025000D03*
X149750000Y-73025000D03*
X149250000Y-73025000D03*
X148750000Y-73025000D03*
X148250000Y-73025000D03*
X147750000Y-73025000D03*
X147250000Y-73025000D03*
X146750000Y-73025000D03*
X146250000Y-73025000D03*
%TD*%
D14*
%TO.C,F1*%
X133700000Y-83900000D03*
X132125000Y-83900000D03*
%TD*%
D27*
%TO.C,SPI*%
X152080000Y-100750000D03*
D28*
X149540000Y-100750000D03*
X147000000Y-100750000D03*
X144460000Y-100750000D03*
%TD*%
D25*
%TO.C,H4*%
X170750000Y-98000000D03*
X168500000Y-100250000D03*
D26*
X170750000Y-100250000D03*
D25*
X169159010Y-101840990D03*
X172340990Y-101840990D03*
X169159010Y-98659010D03*
X170750000Y-102500000D03*
X173000000Y-100250000D03*
X172340990Y-98659010D03*
%TD*%
M02*
