%TF.GenerationSoftware,KiCad,Pcbnew,(6.0.0)*%
%TF.CreationDate,2023-02-04T05:02:53+03:00*%
%TF.ProjectId,STM32F4_breakout,53544d33-3246-4345-9f62-7265616b6f75,rev?*%
%TF.SameCoordinates,Original*%
%TF.FileFunction,Soldermask,Bot*%
%TF.FilePolarity,Negative*%
%FSLAX46Y46*%
G04 Gerber Fmt 4.6, Leading zero omitted, Abs format (unit mm)*
G04 Created by KiCad (PCBNEW (6.0.0)) date 2023-02-04 05:02:53*
%MOMM*%
%LPD*%
G01*
G04 APERTURE LIST*
%ADD10C,0.800000*%
%ADD11C,6.000000*%
%ADD12R,1.700000X1.700000*%
%ADD13O,1.700000X1.700000*%
G04 APERTURE END LIST*
D10*
%TO.C,H3*%
X126000000Y-100250000D03*
X126659010Y-101840990D03*
X128250000Y-102500000D03*
X129840990Y-101840990D03*
D11*
X128250000Y-100250000D03*
D10*
X126659010Y-98659010D03*
X130500000Y-100250000D03*
X129840990Y-98659010D03*
X128250000Y-98000000D03*
%TD*%
D12*
%TO.C,J1*%
X127500000Y-89775000D03*
D13*
X127500000Y-87235000D03*
%TD*%
%TO.C,3.3V*%
X137760000Y-57000000D03*
D12*
X140300000Y-57000000D03*
%TD*%
%TO.C,UART*%
X171000000Y-79225000D03*
D13*
X171000000Y-81765000D03*
%TD*%
D12*
%TO.C,I2C*%
X148660000Y-57000000D03*
D13*
X151200000Y-57000000D03*
%TD*%
D10*
%TO.C,H1*%
X128250000Y-60000000D03*
X126000000Y-57750000D03*
X129840990Y-59340990D03*
X126659010Y-56159010D03*
X130500000Y-57750000D03*
X126659010Y-59340990D03*
X129840990Y-56159010D03*
X128250000Y-55500000D03*
D11*
X128250000Y-57750000D03*
%TD*%
D10*
%TO.C,H2*%
X170750000Y-55500000D03*
X169159010Y-56159010D03*
X168500000Y-57750000D03*
X172340990Y-56159010D03*
X172340990Y-59340990D03*
X173000000Y-57750000D03*
X170750000Y-60000000D03*
D11*
X170750000Y-57750000D03*
D10*
X169159010Y-59340990D03*
%TD*%
D12*
%TO.C,SPI*%
X152080000Y-100750000D03*
D13*
X149540000Y-100750000D03*
X147000000Y-100750000D03*
X144460000Y-100750000D03*
%TD*%
D10*
%TO.C,H4*%
X170750000Y-98000000D03*
X168500000Y-100250000D03*
D11*
X170750000Y-100250000D03*
D10*
X169159010Y-101840990D03*
X172340990Y-101840990D03*
X169159010Y-98659010D03*
X170750000Y-102500000D03*
X173000000Y-100250000D03*
X172340990Y-98659010D03*
%TD*%
M02*
