%TF.GenerationSoftware,KiCad,Pcbnew,(6.0.0)*%
%TF.CreationDate,2023-02-04T05:02:53+03:00*%
%TF.ProjectId,STM32F4_breakout,53544d33-3246-4345-9f62-7265616b6f75,rev?*%
%TF.SameCoordinates,Original*%
%TF.FileFunction,Legend,Top*%
%TF.FilePolarity,Positive*%
%FSLAX46Y46*%
G04 Gerber Fmt 4.6, Leading zero omitted, Abs format (unit mm)*
G04 Created by KiCad (PCBNEW (6.0.0)) date 2023-02-04 05:02:53*
%MOMM*%
%LPD*%
G01*
G04 APERTURE LIST*
%ADD10C,0.150000*%
%ADD11C,0.120000*%
G04 APERTURE END LIST*
D10*
X143280000Y-75000000D02*
G75*
G03*
X143280000Y-75000000I-80000J0D01*
G01*
X138230000Y-74500000D02*
G75*
G03*
X138230000Y-74500000I-80000J0D01*
G01*
X163630000Y-63900000D02*
G75*
G03*
X163630000Y-63900000I-80000J0D01*
G01*
X127705000Y-78075000D02*
G75*
G03*
X127705000Y-78075000I-80000J0D01*
G01*
X157855952Y-83121428D02*
X157094047Y-83121428D01*
X157475000Y-83502380D02*
X157475000Y-82740476D01*
X134980952Y-90521428D02*
X134219047Y-90521428D01*
X134600000Y-90902380D02*
X134600000Y-90140476D01*
X129404761Y-87652380D02*
X129738095Y-88652380D01*
X130071428Y-87652380D01*
X130404761Y-88652380D02*
X130404761Y-87652380D01*
X130880952Y-88652380D02*
X130880952Y-87652380D01*
X131452380Y-88652380D01*
X131452380Y-87652380D01*
X136690476Y-60352380D02*
X136690476Y-59352380D01*
X137071428Y-59352380D01*
X137166666Y-59400000D01*
X137214285Y-59447619D01*
X137261904Y-59542857D01*
X137261904Y-59685714D01*
X137214285Y-59780952D01*
X137166666Y-59828571D01*
X137071428Y-59876190D01*
X136690476Y-59876190D01*
X137880952Y-59352380D02*
X138071428Y-59352380D01*
X138166666Y-59400000D01*
X138261904Y-59495238D01*
X138309523Y-59685714D01*
X138309523Y-60019047D01*
X138261904Y-60209523D01*
X138166666Y-60304761D01*
X138071428Y-60352380D01*
X137880952Y-60352380D01*
X137785714Y-60304761D01*
X137690476Y-60209523D01*
X137642857Y-60019047D01*
X137642857Y-59685714D01*
X137690476Y-59495238D01*
X137785714Y-59400000D01*
X137880952Y-59352380D01*
X138642857Y-59352380D02*
X138880952Y-60352380D01*
X139071428Y-59638095D01*
X139261904Y-60352380D01*
X139500000Y-59352380D01*
X139880952Y-59828571D02*
X140214285Y-59828571D01*
X140357142Y-60352380D02*
X139880952Y-60352380D01*
X139880952Y-59352380D01*
X140357142Y-59352380D01*
X141357142Y-60352380D02*
X141023809Y-59876190D01*
X140785714Y-60352380D02*
X140785714Y-59352380D01*
X141166666Y-59352380D01*
X141261904Y-59400000D01*
X141309523Y-59447619D01*
X141357142Y-59542857D01*
X141357142Y-59685714D01*
X141309523Y-59780952D01*
X141261904Y-59828571D01*
X141166666Y-59876190D01*
X140785714Y-59876190D01*
%TO.C,R6*%
X142018333Y-76982380D02*
X141685000Y-76506190D01*
X141446904Y-76982380D02*
X141446904Y-75982380D01*
X141827857Y-75982380D01*
X141923095Y-76030000D01*
X141970714Y-76077619D01*
X142018333Y-76172857D01*
X142018333Y-76315714D01*
X141970714Y-76410952D01*
X141923095Y-76458571D01*
X141827857Y-76506190D01*
X141446904Y-76506190D01*
X142875476Y-75982380D02*
X142685000Y-75982380D01*
X142589761Y-76030000D01*
X142542142Y-76077619D01*
X142446904Y-76220476D01*
X142399285Y-76410952D01*
X142399285Y-76791904D01*
X142446904Y-76887142D01*
X142494523Y-76934761D01*
X142589761Y-76982380D01*
X142780238Y-76982380D01*
X142875476Y-76934761D01*
X142923095Y-76887142D01*
X142970714Y-76791904D01*
X142970714Y-76553809D01*
X142923095Y-76458571D01*
X142875476Y-76410952D01*
X142780238Y-76363333D01*
X142589761Y-76363333D01*
X142494523Y-76410952D01*
X142446904Y-76458571D01*
X142399285Y-76553809D01*
%TO.C,3.3V*%
X130023809Y-65452380D02*
X130642857Y-65452380D01*
X130309523Y-65833333D01*
X130452380Y-65833333D01*
X130547619Y-65880952D01*
X130595238Y-65928571D01*
X130642857Y-66023809D01*
X130642857Y-66261904D01*
X130595238Y-66357142D01*
X130547619Y-66404761D01*
X130452380Y-66452380D01*
X130166666Y-66452380D01*
X130071428Y-66404761D01*
X130023809Y-66357142D01*
X131071428Y-66357142D02*
X131119047Y-66404761D01*
X131071428Y-66452380D01*
X131023809Y-66404761D01*
X131071428Y-66357142D01*
X131071428Y-66452380D01*
X131452380Y-65452380D02*
X132071428Y-65452380D01*
X131738095Y-65833333D01*
X131880952Y-65833333D01*
X131976190Y-65880952D01*
X132023809Y-65928571D01*
X132071428Y-66023809D01*
X132071428Y-66261904D01*
X132023809Y-66357142D01*
X131976190Y-66404761D01*
X131880952Y-66452380D01*
X131595238Y-66452380D01*
X131500000Y-66404761D01*
X131452380Y-66357142D01*
X132357142Y-65452380D02*
X132690476Y-66452380D01*
X133023809Y-65452380D01*
%TO.C,SWD*%
X163104761Y-70457142D02*
X163152380Y-70314285D01*
X163152380Y-70076190D01*
X163104761Y-69980952D01*
X163057142Y-69933333D01*
X162961904Y-69885714D01*
X162866666Y-69885714D01*
X162771428Y-69933333D01*
X162723809Y-69980952D01*
X162676190Y-70076190D01*
X162628571Y-70266666D01*
X162580952Y-70361904D01*
X162533333Y-70409523D01*
X162438095Y-70457142D01*
X162342857Y-70457142D01*
X162247619Y-70409523D01*
X162200000Y-70361904D01*
X162152380Y-70266666D01*
X162152380Y-70028571D01*
X162200000Y-69885714D01*
X162152380Y-69552380D02*
X163152380Y-69314285D01*
X162438095Y-69123809D01*
X163152380Y-68933333D01*
X162152380Y-68695238D01*
X163152380Y-68314285D02*
X162152380Y-68314285D01*
X162152380Y-68076190D01*
X162200000Y-67933333D01*
X162295238Y-67838095D01*
X162390476Y-67790476D01*
X162580952Y-67742857D01*
X162723809Y-67742857D01*
X162914285Y-67790476D01*
X163009523Y-67838095D01*
X163104761Y-67933333D01*
X163152380Y-68076190D01*
X163152380Y-68314285D01*
%TO.C,STAT*%
X157623809Y-81454761D02*
X157766666Y-81502380D01*
X158004761Y-81502380D01*
X158100000Y-81454761D01*
X158147619Y-81407142D01*
X158195238Y-81311904D01*
X158195238Y-81216666D01*
X158147619Y-81121428D01*
X158100000Y-81073809D01*
X158004761Y-81026190D01*
X157814285Y-80978571D01*
X157719047Y-80930952D01*
X157671428Y-80883333D01*
X157623809Y-80788095D01*
X157623809Y-80692857D01*
X157671428Y-80597619D01*
X157719047Y-80550000D01*
X157814285Y-80502380D01*
X158052380Y-80502380D01*
X158195238Y-80550000D01*
X158480952Y-80502380D02*
X159052380Y-80502380D01*
X158766666Y-81502380D02*
X158766666Y-80502380D01*
X159338095Y-81216666D02*
X159814285Y-81216666D01*
X159242857Y-81502380D02*
X159576190Y-80502380D01*
X159909523Y-81502380D01*
X160100000Y-80502380D02*
X160671428Y-80502380D01*
X160385714Y-81502380D02*
X160385714Y-80502380D01*
%TO.C,UART*%
X169304761Y-83652380D02*
X169304761Y-84461904D01*
X169352380Y-84557142D01*
X169400000Y-84604761D01*
X169495238Y-84652380D01*
X169685714Y-84652380D01*
X169780952Y-84604761D01*
X169828571Y-84557142D01*
X169876190Y-84461904D01*
X169876190Y-83652380D01*
X170304761Y-84366666D02*
X170780952Y-84366666D01*
X170209523Y-84652380D02*
X170542857Y-83652380D01*
X170876190Y-84652380D01*
X171780952Y-84652380D02*
X171447619Y-84176190D01*
X171209523Y-84652380D02*
X171209523Y-83652380D01*
X171590476Y-83652380D01*
X171685714Y-83700000D01*
X171733333Y-83747619D01*
X171780952Y-83842857D01*
X171780952Y-83985714D01*
X171733333Y-84080952D01*
X171685714Y-84128571D01*
X171590476Y-84176190D01*
X171209523Y-84176190D01*
X172066666Y-83652380D02*
X172638095Y-83652380D01*
X172352380Y-84652380D02*
X172352380Y-83652380D01*
%TO.C,I2C*%
X149923809Y-60352380D02*
X149923809Y-59352380D01*
X150352380Y-59447619D02*
X150400000Y-59400000D01*
X150495238Y-59352380D01*
X150733333Y-59352380D01*
X150828571Y-59400000D01*
X150876190Y-59447619D01*
X150923809Y-59542857D01*
X150923809Y-59638095D01*
X150876190Y-59780952D01*
X150304761Y-60352380D01*
X150923809Y-60352380D01*
X151923809Y-60257142D02*
X151876190Y-60304761D01*
X151733333Y-60352380D01*
X151638095Y-60352380D01*
X151495238Y-60304761D01*
X151400000Y-60209523D01*
X151352380Y-60114285D01*
X151304761Y-59923809D01*
X151304761Y-59780952D01*
X151352380Y-59590476D01*
X151400000Y-59495238D01*
X151495238Y-59400000D01*
X151638095Y-59352380D01*
X151733333Y-59352380D01*
X151876190Y-59400000D01*
X151923809Y-59447619D01*
%TO.C,SPI*%
X147376190Y-98304761D02*
X147519047Y-98352380D01*
X147757142Y-98352380D01*
X147852380Y-98304761D01*
X147900000Y-98257142D01*
X147947619Y-98161904D01*
X147947619Y-98066666D01*
X147900000Y-97971428D01*
X147852380Y-97923809D01*
X147757142Y-97876190D01*
X147566666Y-97828571D01*
X147471428Y-97780952D01*
X147423809Y-97733333D01*
X147376190Y-97638095D01*
X147376190Y-97542857D01*
X147423809Y-97447619D01*
X147471428Y-97400000D01*
X147566666Y-97352380D01*
X147804761Y-97352380D01*
X147947619Y-97400000D01*
X148376190Y-98352380D02*
X148376190Y-97352380D01*
X148757142Y-97352380D01*
X148852380Y-97400000D01*
X148900000Y-97447619D01*
X148947619Y-97542857D01*
X148947619Y-97685714D01*
X148900000Y-97780952D01*
X148852380Y-97828571D01*
X148757142Y-97876190D01*
X148376190Y-97876190D01*
X149376190Y-98352380D02*
X149376190Y-97352380D01*
D11*
%TO.C,R6*%
X142031359Y-77320000D02*
X142338641Y-77320000D01*
X142031359Y-78080000D02*
X142338641Y-78080000D01*
%TO.C,C5*%
X146607836Y-85740000D02*
X146392164Y-85740000D01*
X146607836Y-86460000D02*
X146392164Y-86460000D01*
%TO.C,C1*%
X134065000Y-75961252D02*
X134065000Y-75438748D01*
X135535000Y-75961252D02*
X135535000Y-75438748D01*
%TO.C,C13*%
X141860000Y-80857836D02*
X141860000Y-80642164D01*
X141140000Y-80857836D02*
X141140000Y-80642164D01*
%TO.C,C9*%
X155740000Y-73207836D02*
X155740000Y-72992164D01*
X156460000Y-73207836D02*
X156460000Y-72992164D01*
%TO.C,3.3V*%
X132735000Y-66965000D02*
X130450000Y-66965000D01*
X130450000Y-68435000D02*
X132735000Y-68435000D01*
X132735000Y-68435000D02*
X132735000Y-66965000D01*
%TO.C,C6*%
X146607836Y-87560000D02*
X146392164Y-87560000D01*
X146607836Y-86840000D02*
X146392164Y-86840000D01*
%TO.C,C14*%
X142960000Y-80857836D02*
X142960000Y-80642164D01*
X142240000Y-80857836D02*
X142240000Y-80642164D01*
%TO.C,C4*%
X142240000Y-74207836D02*
X142240000Y-73992164D01*
X142960000Y-74207836D02*
X142960000Y-73992164D01*
%TO.C,FB1*%
X132610000Y-79750378D02*
X132610000Y-80549622D01*
X131490000Y-79750378D02*
X131490000Y-80549622D01*
%TO.C,C11*%
X146392164Y-70940000D02*
X146607836Y-70940000D01*
X146392164Y-71660000D02*
X146607836Y-71660000D01*
%TO.C,C15*%
X152740000Y-86959420D02*
X152740000Y-87240580D01*
X153760000Y-86959420D02*
X153760000Y-87240580D01*
%TO.C,C12*%
X146372164Y-69840000D02*
X146587836Y-69840000D01*
X146372164Y-70560000D02*
X146587836Y-70560000D01*
%TO.C,C17*%
X138892164Y-73640000D02*
X139107836Y-73640000D01*
X138892164Y-74360000D02*
X139107836Y-74360000D01*
%TO.C,SWD*%
X165400000Y-74840000D02*
X165400000Y-75410000D01*
X170600000Y-64680000D02*
X170600000Y-65700000D01*
X170600000Y-67220000D02*
X170600000Y-68240000D01*
X170600000Y-74840000D02*
X170600000Y-75410000D01*
X170600000Y-69760000D02*
X170600000Y-70780000D01*
X170600000Y-62590000D02*
X170600000Y-63160000D01*
X165400000Y-67220000D02*
X165400000Y-68240000D01*
X165400000Y-75410000D02*
X170600000Y-75410000D01*
X165400000Y-69760000D02*
X165400000Y-70780000D01*
X165400000Y-62590000D02*
X170600000Y-62590000D01*
X170600000Y-72300000D02*
X170600000Y-73320000D01*
X163960000Y-63160000D02*
X165400000Y-63160000D01*
X165400000Y-72300000D02*
X165400000Y-73320000D01*
X165400000Y-64680000D02*
X165400000Y-65700000D01*
X165400000Y-62590000D02*
X165400000Y-63160000D01*
%TO.C,R2*%
X147620000Y-70546359D02*
X147620000Y-70853641D01*
X148380000Y-70546359D02*
X148380000Y-70853641D01*
%TO.C,C10*%
X157560000Y-73227836D02*
X157560000Y-73012164D01*
X156840000Y-73227836D02*
X156840000Y-73012164D01*
%TO.C,C2*%
X129211252Y-79935000D02*
X128688748Y-79935000D01*
X129211252Y-78465000D02*
X128688748Y-78465000D01*
%TO.C,U1*%
X126540000Y-71690000D02*
X127800000Y-71690000D01*
X133360000Y-71690000D02*
X132100000Y-71690000D01*
X133360000Y-75450000D02*
X133360000Y-71690000D01*
X126540000Y-77700000D02*
X126540000Y-71690000D01*
%TO.C,R3*%
X152180000Y-86753641D02*
X152180000Y-86446359D01*
X151420000Y-86753641D02*
X151420000Y-86446359D01*
%TO.C,R5*%
X147936359Y-67130000D02*
X148243641Y-67130000D01*
X147936359Y-66370000D02*
X148243641Y-66370000D01*
%TO.C,STAT*%
X160485000Y-81765000D02*
X158200000Y-81765000D01*
X158200000Y-83235000D02*
X160485000Y-83235000D01*
X160485000Y-83235000D02*
X160485000Y-81765000D01*
%TO.C,FB2*%
X140000378Y-82240000D02*
X140799622Y-82240000D01*
X140000378Y-83360000D02*
X140799622Y-83360000D01*
%TO.C,C7*%
X155192164Y-84340000D02*
X155407836Y-84340000D01*
X155192164Y-85060000D02*
X155407836Y-85060000D01*
%TO.C,J1*%
X128830000Y-89775000D02*
X128830000Y-91105000D01*
X128830000Y-88505000D02*
X128830000Y-85905000D01*
X128830000Y-91105000D02*
X127500000Y-91105000D01*
X128830000Y-85905000D02*
X126170000Y-85905000D01*
X126170000Y-88505000D02*
X126170000Y-85905000D01*
X128830000Y-88505000D02*
X126170000Y-88505000D01*
%TO.C,3.3V*%
X139030000Y-55670000D02*
X136430000Y-55670000D01*
X140300000Y-55670000D02*
X141630000Y-55670000D01*
X139030000Y-55670000D02*
X139030000Y-58330000D01*
X136430000Y-55670000D02*
X136430000Y-58330000D01*
X139030000Y-58330000D02*
X136430000Y-58330000D01*
X141630000Y-55670000D02*
X141630000Y-57000000D01*
%TO.C,C3*%
X143790000Y-71240580D02*
X143790000Y-70959420D01*
X144810000Y-71240580D02*
X144810000Y-70959420D01*
%TO.C,UART*%
X169670000Y-80495000D02*
X169670000Y-83095000D01*
X169670000Y-83095000D02*
X172330000Y-83095000D01*
X172330000Y-80495000D02*
X172330000Y-83095000D01*
X169670000Y-79225000D02*
X169670000Y-77895000D01*
X169670000Y-77895000D02*
X171000000Y-77895000D01*
X169670000Y-80495000D02*
X172330000Y-80495000D01*
%TO.C,I2C*%
X147330000Y-58330000D02*
X147330000Y-57000000D01*
X149930000Y-58330000D02*
X149930000Y-55670000D01*
X149930000Y-58330000D02*
X152530000Y-58330000D01*
X152530000Y-58330000D02*
X152530000Y-55670000D01*
X149930000Y-55670000D02*
X152530000Y-55670000D01*
X148660000Y-58330000D02*
X147330000Y-58330000D01*
%TO.C,R7*%
X159227064Y-85235000D02*
X158772936Y-85235000D01*
X159227064Y-83765000D02*
X158772936Y-83765000D01*
%TO.C,R4*%
X150363641Y-66420000D02*
X150056359Y-66420000D01*
X150363641Y-67180000D02*
X150056359Y-67180000D01*
%TO.C,XTAL*%
X137350000Y-74750000D02*
X137350000Y-78750000D01*
X140650000Y-74750000D02*
X137350000Y-74750000D01*
%TO.C,C16*%
X158459420Y-74490000D02*
X158740580Y-74490000D01*
X158459420Y-75510000D02*
X158740580Y-75510000D01*
%TO.C,Fuse*%
X132700000Y-85900000D02*
X132700000Y-89800000D01*
X134700000Y-85900000D02*
X134700000Y-89800000D01*
X134700000Y-85900000D02*
X132700000Y-85900000D01*
%TO.C,R1*%
X134522936Y-68435000D02*
X134977064Y-68435000D01*
X134522936Y-66965000D02*
X134977064Y-66965000D01*
%TO.C,C8*%
X155192164Y-86160000D02*
X155407836Y-86160000D01*
X155192164Y-85440000D02*
X155407836Y-85440000D01*
%TO.C,C18*%
X139127836Y-79860000D02*
X138912164Y-79860000D01*
X139127836Y-79140000D02*
X138912164Y-79140000D01*
%TO.C,U2*%
X144890000Y-83810000D02*
X144890000Y-82860000D01*
X145840000Y-83810000D02*
X144890000Y-83810000D01*
X155110000Y-83810000D02*
X155110000Y-82860000D01*
X154160000Y-73590000D02*
X155110000Y-73590000D01*
X144890000Y-73590000D02*
X144890000Y-74540000D01*
X155110000Y-73590000D02*
X155110000Y-74540000D01*
X144890000Y-74540000D02*
X143550000Y-74540000D01*
X154160000Y-83810000D02*
X155110000Y-83810000D01*
X145840000Y-73590000D02*
X144890000Y-73590000D01*
%TO.C,F1*%
X133075279Y-83390000D02*
X132749721Y-83390000D01*
X133075279Y-84410000D02*
X132749721Y-84410000D01*
%TO.C,SPI*%
X150810000Y-99420000D02*
X150810000Y-102080000D01*
X153410000Y-99420000D02*
X153410000Y-100750000D01*
X143130000Y-99420000D02*
X143130000Y-102080000D01*
X150810000Y-99420000D02*
X143130000Y-99420000D01*
X152080000Y-99420000D02*
X153410000Y-99420000D01*
X150810000Y-102080000D02*
X143130000Y-102080000D01*
%TD*%
M02*
